<?xml version="1.0" encoding="UTF-8"?>
<svg
	width="724px"
	height="119px"
	viewBox="0 0 724 119"
	version="1.1"
	xmlns="http://www.w3.org/2000/svg"
	xmlns:xlink="http://www.w3.org/1999/xlink"
>
  <title>编组 20</title>
  <g id="magic-os-定稿" stroke="none" stroke-width="1" fill="none" fill-rule="evenodd">
    <g id="编组-20">
      <path
				d="M724,0 L724,119 L0,119 L0,0 L724,0 Z M492.528521,16 L474.622173,16 L462,101.418182 L478.486942,101.418182 L479.572182,94.074026 L479.790552,94.074026 C481.125679,96.861039 483.295948,99.0454545 486.30136,100.627273 C489.306773,102.209091 492.62923,103 496.268732,103 C503.984475,103 510.654751,100.1 516.279559,94.3 C521.904368,88.5 525.334524,81.4194805 526.570027,73.0584416 C527.78327,64.8480519 526.428982,57.8805195 522.507166,52.1558442 C518.585349,46.4311688 512.839359,43.5688312 505.269195,43.5688312 C501.629694,43.5688312 498.282013,44.3032468 495.226154,45.7720779 C492.170295,47.2409091 489.613056,49.0298701 487.554436,51.138961 L487.336066,51.138961 L492.528521,16 Z M46.1338336,21 L27.0587177,21 L15,101 L64.462219,101 L67,84.1638418 L36.6128968,84.1638418 L46.1338336,21 Z M104,21 L84.8999876,21 L73,101 L92.1000124,101 L104,21 Z M141.536727,21 L120.054905,21 L108,101 L126.28709,101 L133.7298,48.6836158 L134.06029,48.6836158 L157.573436,101 L178.945095,101 L191,21 L172.71291,21 L165.287227,73.2033898 L164.956737,73.2033898 L141.536727,21 Z M225.720971,21 L207.033998,21 L195,101 L213.686972,101 L219.228051,64.1638418 L219.450515,64.1638418 L243.163446,101 L267.968177,101 L238.533169,57.8361582 L278,21 L254.196357,21 L221.159481,53.5423729 L220.825785,53.5423729 L225.720971,21 Z M376.890825,43 L358.614709,43 L353.391584,77.890625 C352.430619,84.3098958 353.238343,89.766276 355.814755,94.2597656 C358.391167,98.7532552 363.113068,101 369.980457,101 C373.672602,101 377.168119,100.09375 380.467009,98.28125 C383.765899,96.46875 386.277775,94.2408854 388.002639,91.5976563 L388.224167,91.5976563 L387.054052,99.4140625 L404.554818,99.4140625 L413,43 L394.834648,43 L390.272893,73.4726562 C389.764147,76.8710938 388.466885,79.7408854 386.381108,82.0820313 C384.29533,84.4231771 381.738662,85.59375 378.711104,85.59375 C375.683545,85.59375 373.724491,84.4986979 372.833942,82.3085937 C371.943393,80.1184896 371.769449,77.2109375 372.312112,73.5859375 L376.890825,43 Z M364,21 L301.451706,21 L299,37.4971751 L320.908334,37.4971751 L311.470945,101 L330.20257,101 L339.63996,37.4971751 L361.548294,37.4971751 L364,21 Z M569.441936,41 C560.743818,41 553.069816,43.7358491 546.419928,49.2075472 C539.77004,54.6792453 535.772437,61.8679245 534.427119,70.7735849 C533.081802,79.6792453 534.914542,86.9433962 539.92534,92.5660377 C544.936137,98.1886792 551.753738,101 560.378143,101 C569.002547,101 576.687951,98.1886792 583.434353,92.5660377 C590.180756,86.9433962 594.226617,79.6792453 595.571934,70.7735849 C596.917252,61.8679245 595.091539,54.6792453 590.094796,49.2075472 C585.098052,43.7358491 578.213766,41 569.441936,41 Z M658.032863,21 L635.25796,21 L654.782037,58.740113 L621,101 L643.553787,101 L664.280712,72.7514124 L677.163353,101 L700.491045,101 L678.55196,58.740113 L709,21 L686.999001,21 L668.883133,45.8587571 L658.032863,21 Z M459.211601,42 C455.979548,42 452.9081,42.8873698 449.997255,44.6621094 C447.08641,46.436849 444.71207,48.796875 442.874237,51.7421875 L442.65387,51.7421875 C443.062031,49.0234375 443.470192,46.3046875 443.878353,43.5859375 L426.469344,43.5859375 C426.027169,46.53125 425.695538,48.7402344 425.474451,50.2128906 C425.253364,51.6855469 424.927402,53.8567708 424.496565,56.7265625 L418,100 L436.070111,100 L440.42383,71 C440.900018,67.828125 442.459558,64.9016927 445.10245,62.2207031 C447.745342,59.5397135 451.123549,58.1992187 455.23707,58.1992187 C455.530893,58.1992187 456.115705,58.218099 456.991504,58.2558594 C457.867304,58.2936198 458.796719,58.4635417 459.779748,58.765625 L463,42.453125 C462.237338,42.1510417 460.974538,42 459.211601,42 Z M498.783034,58 C502.87729,58 505.883431,59.4160156 507.801456,62.2480469 C509.719481,65.0800781 510.382532,68.4596354 509.79061,72.3867187 C509.187304,76.3893229 507.496926,79.8255208 504.719475,82.6953125 C501.942024,85.5651042 498.50617,87 494.411914,87 C490.46654,87 487.463245,85.5651042 485.402029,82.6953125 C483.340813,79.8255208 482.606167,76.4270833 483.198089,72.5 C483.778629,68.6484375 485.553521,65.2688802 488.522766,62.3613281 C491.492011,59.453776 494.9121,58 498.783034,58 Z M567.604882,57 C571.734092,57 574.779295,58.4348958 576.740492,61.3046875 C578.701688,64.1744792 579.386183,67.5351562 578.793975,71.3867187 C578.190155,75.3138021 576.482261,78.7311198 573.670291,81.6386719 C570.858321,84.546224 567.387731,86 563.258521,86 C559.129311,86 556.10578,84.546224 554.187928,81.6386719 C552.270076,78.7311198 551.613059,75.3138021 552.216879,71.3867187 C552.820698,67.4596354 554.504018,64.0800781 557.266838,61.2480469 C560.029657,58.4160156 563.475672,57 567.604882,57 Z"
				id="形状结合"
				fill="#000000"
			></path>
      <path
				d="M15,101 L27.0587177,21 L46.1338336,21 L36.6128968,84.1638418 L67,84.1638418 L64.462219,101 L15,101 Z M73,101 L84.8999876,21 L104,21 L92.1000124,101 L73,101 Z M108,101 L120.054905,21 L141.536727,21 L164.956737,73.2033898 L165.287227,73.2033898 L172.71291,21 L191,21 L178.945095,101 L157.573436,101 L134.06029,48.6836158 L133.7298,48.6836158 L126.28709,101 L108,101 Z M195,101 L207.033998,21 L225.720971,21 L220.825785,53.5423729 L221.159481,53.5423729 L254.196357,21 L278,21 L238.533169,57.8361582 L267.968177,101 L243.163446,101 L219.450515,64.1638418 L219.228051,64.1638418 L213.686972,101 L195,101 Z M376.890825,43 L372.312112,73.5859375 C371.769449,77.2109375 371.943393,80.1184896 372.833942,82.3085937 C373.724491,84.4986979 375.683545,85.59375 378.711104,85.59375 C381.738662,85.59375 384.29533,84.4231771 386.381108,82.0820313 C388.466885,79.7408854 389.764147,76.8710938 390.272893,73.4726562 L394.834648,43 L413,43 L404.554818,99.4140625 L387.054052,99.4140625 L388.224167,91.5976563 L388.002639,91.5976563 C386.277775,94.2408854 383.765899,96.46875 380.467009,98.28125 C377.168119,100.09375 373.672602,101 369.980457,101 C363.113068,101 358.391167,98.7532552 355.814755,94.2597656 C353.238343,89.766276 352.430619,84.3098958 353.391584,77.890625 L358.614709,43 L376.890825,43 Z M364,21 L361.548294,37.4971751 L339.63996,37.4971751 L330.20257,101 L311.470945,101 L320.908334,37.4971751 L299,37.4971751 L301.451706,21 L364,21 Z M418,100 L424.496565,56.7265625 C424.927402,53.8567708 425.253364,51.6855469 425.474451,50.2128906 C425.695538,48.7402344 426.027169,46.53125 426.469344,43.5859375 L443.878353,43.5859375 C443.470192,46.3046875 443.062031,49.0234375 442.65387,51.7421875 L442.874237,51.7421875 C444.71207,48.796875 447.08641,46.436849 449.997255,44.6621094 C452.9081,42.8873698 455.979548,42 459.211601,42 C460.974538,42 462.237338,42.1510417 463,42.453125 L459.779748,58.765625 C458.796719,58.4635417 457.867304,58.2936198 456.991504,58.2558594 C456.115705,58.218099 455.530893,58.1992187 455.23707,58.1992187 C451.123549,58.1992187 447.745342,59.5397135 445.10245,62.2207031 C442.459558,64.9016927 440.900018,67.828125 440.42383,71 L436.070111,100 L418,100 Z M496.268732,103 C492.62923,103 489.306773,102.209091 486.30136,100.627273 C483.295948,99.0454545 481.125679,96.861039 479.790552,94.074026 L479.572182,94.074026 L478.486942,101.418182 L462,101.418182 L474.622173,16 L492.528521,16 L487.336066,51.138961 L487.554436,51.138961 C489.613056,49.0298701 492.170295,47.2409091 495.226154,45.7720779 C498.282013,44.3032468 501.629694,43.5688312 505.269195,43.5688312 C512.839359,43.5688312 518.585349,46.4311688 522.507166,52.1558442 C526.428982,57.8805195 527.78327,64.8480519 526.570027,73.0584416 C525.334524,81.4194805 521.904368,88.5 516.279559,94.3 C510.654751,100.1 503.984475,103 496.268732,103 Z M494.411914,87 C498.50617,87 501.942024,85.5651042 504.719475,82.6953125 C507.496926,79.8255208 509.187304,76.3893229 509.79061,72.3867187 C510.382532,68.4596354 509.719481,65.0800781 507.801456,62.2480469 C505.883431,59.4160156 502.87729,58 498.783034,58 C494.9121,58 491.492011,59.453776 488.522766,62.3613281 C485.553521,65.2688802 483.778629,68.6484375 483.198089,72.5 C482.606167,76.4270833 483.340813,79.8255208 485.402029,82.6953125 C487.463245,85.5651042 490.46654,87 494.411914,87 Z M560.378143,101 C551.753738,101 544.936137,98.1886792 539.92534,92.5660377 C534.914542,86.9433962 533.081802,79.6792453 534.427119,70.7735849 C535.772437,61.8679245 539.77004,54.6792453 546.419928,49.2075472 C553.069816,43.7358491 560.743818,41 569.441936,41 C578.213766,41 585.098052,43.7358491 590.094796,49.2075472 C595.091539,54.6792453 596.917252,61.8679245 595.571934,70.7735849 C594.226617,79.6792453 590.180756,86.9433962 583.434353,92.5660377 C576.687951,98.1886792 569.002547,101 560.378143,101 Z M563.258521,86 C567.387731,86 570.858321,84.546224 573.670291,81.6386719 C576.482261,78.7311198 578.190155,75.3138021 578.793975,71.3867187 C579.386183,67.5351562 578.701688,64.1744792 576.740492,61.3046875 C574.779295,58.4348958 571.734092,57 567.604882,57 C563.475672,57 560.029657,58.4160156 557.266838,61.2480469 C554.504018,64.0800781 552.820698,67.4596354 552.216879,71.3867187 C551.613059,75.3138021 552.270076,78.7311198 554.187928,81.6386719 C556.10578,84.546224 559.129311,86 563.258521,86 Z M621,101 L654.782037,58.740113 L635.25796,21 L658.032863,21 L668.883133,45.8587571 L686.999001,21 L709,21 L678.55196,58.740113 L700.491045,101 L677.163353,101 L664.280712,72.7514124 L643.553787,101 L621,101 Z"
				id="形状结合"
				stroke="#FFFFFF"
				stroke-width="2"
				fill-rule="nonzero"
			></path>
    </g>
  </g>
</svg>
