<?xml version="1.0" encoding="UTF-8"?>
<svg
  width="115px"
  height="259px"
  viewBox="0 0 115 259"
  version="1.1"
  xmlns="http://www.w3.org/2000/svg"
  xmlns:xlink="http://www.w3.org/1999/xlink"
>
  <title>形状结合备份@3x</title>
  <defs>
    <linearGradient x1="48.7717732%" y1="103.160534%" x2="48.7717732%" y2="15.8895406%" id="linearGradient-1">
      <stop stop-color="#1D3DE5" offset="0%"></stop>
      <stop stop-color="#97DEFF" offset="100%"></stop>
    </linearGradient>
  </defs>
  <g id="页面-1" stroke="none" stroke-width="1" fill="none" fill-rule="evenodd">
    <g
      id="link-turbo-x备份"
      fill="url(#linearGradient-1)"
      fill-rule="nonzero"
      transform="translate(-1291.000000, -514.000000)"
    >
      <g id="编组-5" transform="translate(513.000000, 514.000000)">
        <path
          d="M836.298611,0 L836.298611,24.7808642 L848.313092,24.7808642 L848.313092,18.3858025 L865.847222,18.3858025 L865.847222,66.3487654 L848.237278,66.3487654 L848.313092,59.9537037 L844.283778,59.9528025 L844.284722,72.7438272 L840.988,72.743 L878.827,246.209 L893,246.209877 L893,259 L778,259 L778,246.209877 L792.172,246.209 L797.965,219.652 L797.965278,219.030864 L798.101,219.03 L830.011,72.743 L826.715278,72.7438272 L826.714778,59.9528025 L822.722222,59.9537037 L822.725603,66.3487654 L805.152778,66.3487654 L805.152778,18.3858025 L822.813862,18.3858025 L822.813862,24.7808642 L834.701389,24.7808642 L834.701389,0 L836.298611,0 Z M870.359,222.383 L800.569,246.209 L875.556,246.209 L870.359,222.383 Z M860.918,222.228 L800.672,222.228 L795.825,244.449 L860.918,222.228 Z M806.693,195.049 L806.601,195.049 L801.37,219.03 L862.749,219.03 L806.693,195.049 Z M864.397,195.049 L814.819,195.049 L869.499,218.44 L864.397,195.049 Z M858.567,168.32 L813.53,191.851 L863.699,191.851 L858.567,168.32 Z M852.524,167.87 L812.53,167.87 L807.385,191.455 L852.524,167.87 Z M818.331,141.273 L813.227,164.672 L853.721,164.672 L818.331,141.273 Z M852.54,140.691 L823.247,140.691 L857.477,163.324 L852.54,140.691 Z M846.732,114.063 L821.947,137.493 L851.843,137.493 L846.732,114.063 Z M842.662,113.512 L824.387,113.512 L819.639,135.278 L842.662,113.512 Z M829.792,88.73 L825.084,110.314 L843.744,110.314 L829.792,88.73 Z M840.684,86.333 L832.047,86.333 L845.082,106.498 L840.684,86.333 Z M838.341,75.593 L832.403,83.135 L839.986,83.135 L838.341,75.593 Z M836.517,72.743 L833.279861,72.7438272 L832.038,78.433 L836.517,72.743 Z M824.225771,26.8505499 C819.44221,30.3389229 816.333333,35.9896941 816.333333,42.367284 C816.333333,48.7448738 819.44221,54.395645 824.225771,57.884018 L824.695594,57.2375335 C820.111312,53.8945132 817.131944,48.4791691 817.131944,42.367284 C817.131944,36.2553988 820.111312,30.8400547 824.695594,27.4970344 L824.225771,26.8505499 Z M846.774576,26.8508029 L846.304946,27.4974282 C850.888921,30.84048 853.868056,36.2556388 853.868056,42.367284 C853.868056,48.4789291 850.888921,53.8940879 846.304946,57.2371397 L846.774576,57.883765 C851.55794,54.3953718 854.666667,48.7447197 854.666667,42.367284 C854.666667,35.9898482 851.55794,30.3391961 846.774576,26.8508029 Z M826.574311,30.0833911 C822.787471,32.8450347 820.326389,37.3184733 820.326389,42.367284 C820.326389,47.4160946 822.787471,51.8895332 826.574311,54.6511768 L827.045064,54.0053708 C823.456977,51.389134 821.125,47.1508033 821.125,42.367284 C821.125,37.5842115 823.456541,33.3462257 827.044058,30.7299303 L826.574311,30.0833911 Z M844.425539,30.0832813 L843.955685,30.7297431 C847.543348,33.3460235 849.875,37.5840974 849.875,42.367284 C849.875,47.1504705 847.543348,51.3885444 843.955685,54.0048248 L844.425539,54.6512866 C848.212463,51.8896517 850.673611,47.4161615 850.673611,42.367284 C850.673611,37.3184064 848.212463,32.8449162 844.425539,30.0832813 Z M828.923895,33.3154702 C826.133185,35.3503236 824.319444,38.6467882 824.319444,42.367284 C824.319444,46.0877797 826.133185,49.3842443 828.923895,51.4190977 L829.393014,50.7720996 C826.801982,48.8825577 825.118056,45.8217619 825.118056,42.367284 C825.118056,38.912806 826.801982,35.8520102 829.393014,33.9624683 L828.923895,33.3154702 Z M842.076105,33.3154702 L841.60799,33.9632001 C844.198453,35.8528004 845.881944,38.9132519 845.881944,42.367284 C845.881944,45.8217619 844.198018,48.8825577 841.606986,50.7720996 L842.076105,51.4190977 C844.866815,49.3842443 846.680556,46.0877797 846.680556,42.367284 C846.680556,38.6467882 844.866815,35.3503236 842.076105,33.3154702 Z M831.272885,36.5479831 C829.478641,37.8560809 828.3125,39.9753674 828.3125,42.367284 C828.3125,44.7592005 829.478641,46.878487 831.272885,48.1865848 L831.741655,47.5393324 C830.147287,46.3765257 829.111111,44.4930277 829.111111,42.367284 C829.111111,40.2415402 830.147287,38.3580422 831.741655,37.1952355 L831.272885,36.5479831 Z M839.727619,36.5483506 L839.258345,37.1952355 C840.852713,38.3580422 841.888889,40.2415402 841.888889,42.367284 C841.888889,44.4930277 840.852713,46.3765257 839.258345,47.5393324 L839.727619,48.1862173 C841.521577,46.8780901 842.6875,44.7589765 842.6875,42.367284 C842.6875,39.9755914 841.521577,37.8564778 839.727619,36.5483506 Z M833.150632,39.1350466 C832.15438,39.8618242 831.506944,41.0388726 831.506944,42.367284 C831.506944,43.6956953 832.15438,44.8727437 833.150632,45.5995213 L834.090453,44.3066803 C833.49266,43.870618 833.104167,43.1643636 833.104167,42.367284 C833.104167,41.5702043 833.49266,40.8639499 834.090453,40.4278876 L833.150632,39.1350466 Z M837.849511,39.1351512 L836.908994,40.4274845 C837.5071,40.8635145 837.895833,41.5699586 837.895833,42.367284 C837.895833,43.1646093 837.5071,43.8710534 836.908994,44.3070834 L837.849511,45.5994167 C838.845682,44.8726308 839.493056,43.6956316 839.493056,42.367284 C839.493056,41.0389363 838.845682,39.8619371 837.849511,39.1351512 Z"
          id="形状结合备份"
        ></path>
      </g>
    </g>
  </g>
</svg>
