<?xml version="1.0" encoding="UTF-8"?>
<svg
  width="858px"
  height="119px"
  viewBox="0 0 858 119"
  version="1.1"
  xmlns="http://www.w3.org/2000/svg"
  xmlns:xlink="http://www.w3.org/1999/xlink"
>
  <title>编组 19@3x</title>
  <defs>
    <path
      d="M50.0386401,87.5676202 C52.8185645,87.474956 55.3899947,87.2201296 57.7529304,86.803141 C60.1158662,86.3861523 62.3166398,85.6680051 64.355251,84.6486995 L67.5521641,66.1622019 L48.3706854,66.1622019 L51.845591,47.1197194 L92.2934917,47.1197194 L83.2587373,99.1043066 C78.2548733,101.698903 72.6255263,103.783846 66.3706962,105.359137 C60.1158662,106.934427 53.6525419,107.722072 46.9807232,107.722072 C39.9382479,107.722072 33.5212557,106.725933 27.7297464,104.733654 C21.9382371,102.741374 17.0038712,99.8919519 12.9266487,96.185386 C8.84942617,92.47882 5.67567909,87.9846088 3.40540745,82.7027524 C1.13513582,77.4208959 0,71.4903904 0,64.9112359 C0,56.4787984 1.45946034,48.5560137 4.37838101,41.1428819 C7.29730168,33.72975 11.3745242,27.2664256 16.6100486,21.7529088 C21.845573,16.239392 28.0077388,11.9073431 35.0965462,8.75676202 C42.1853535,5.60618097 49.8996439,4.03089045 58.2394172,4.03089045 C66.0232057,4.03089045 73.088847,5.25869042 79.4363412,7.71429035 C85.7838353,10.1698903 90.7645333,13.8069581 94.3784351,18.6254938 L77.5598922,33.7760821 C75.7066092,31.0888218 73.1815111,28.8417162 69.984598,27.0347653 C66.7876849,25.2278144 62.7336284,24.3243389 57.8224286,24.3243389 C53.0038928,24.3243389 48.5328477,25.3436446 44.4092931,27.3822558 C40.2857385,29.4208671 36.7181688,32.1776255 33.706584,35.6525311 C30.6949991,39.1274366 28.3320634,43.1583271 26.6177766,47.7452024 C24.9034899,52.3320778 24.0463465,57.1737795 24.0463465,62.2703077 C24.0463465,65.8842095 24.6023314,69.2432848 25.7143012,72.3475338 C26.8262709,75.4517828 28.4942256,78.1390431 30.7181652,80.4093147 C32.9421047,82.6795863 35.6756971,84.4402052 38.9189423,85.6911712 C42.1621875,86.9421372 45.8687534,87.5676202 50.0386401,87.5676202 Z M150.671905,6.67181868 C162.254924,6.67181868 171.127516,9.08108654 177.289682,13.8996222 C183.451848,18.718158 186.532931,25.4363087 186.532931,34.0540745 C186.532931,39.8919159 185.513625,44.9421119 183.475014,49.2046628 C181.436402,53.4672136 178.517482,56.9652852 174.718252,59.6988776 C170.919022,62.4324699 166.355312,64.4479152 161.027124,65.7452132 C155.698935,67.0425113 149.745264,67.6911604 143.166109,67.6911604 L130.517453,67.6911604 L123.845634,105.081144 L100.911258,105.081144 L118.285785,6.67181868 L150.671905,6.67181868 Z M143.583098,49.343659 C149.606267,49.343659 154.401637,48.3938515 157.969207,46.4942364 C161.536777,44.5946214 163.320561,41.235546 163.320561,36.4170103 C163.320561,34.2857349 162.926739,32.50195 162.139094,31.0656557 C161.351448,29.6293614 160.262645,28.4942256 158.872682,27.6602483 C157.48272,26.8262709 155.814765,26.24712 153.868818,25.9227955 C151.922871,25.598471 149.791596,25.4363087 147.474992,25.4363087 L138.023249,25.4363087 L133.714366,49.343659 L143.583098,49.343659 Z M278.409434,68.9421264 C277.390128,74.7799677 275.722173,80.0849902 273.40557,84.8571938 C271.088966,89.6293975 268.054215,93.683454 264.301317,97.0193633 C260.548419,100.355273 256.077374,102.949869 250.888182,104.803152 C245.698989,106.656435 239.722152,107.583076 232.957669,107.583076 C227.027163,107.583076 221.675809,106.864929 216.903605,105.428635 C212.131402,103.99234 208.054179,101.953729 204.671938,99.312801 C201.289696,96.6718727 198.6951,93.4517936 196.888149,89.6525635 C195.081198,85.8533334 194.177723,81.5907826 194.177723,76.864911 C194.177723,75.567613 194.247221,74.1776507 194.386217,72.6950244 C194.525213,71.212398 194.687376,69.7761037 194.872704,68.3861415 L205.714409,6.67181868 L228.648786,6.67181868 L218.085073,66.3011981 C217.899745,67.2278396 217.783915,68.2008132 217.737583,69.2201188 C217.69125,70.2394244 217.668084,71.1660659 217.668084,72.0000433 C217.668084,74.0386545 217.969243,75.9846016 218.57156,77.8378846 C219.173877,79.6911676 220.123684,81.3359562 221.420982,82.7722505 C222.718281,84.2085448 224.432567,85.3436806 226.563843,86.1776579 C228.695118,87.0116353 231.243382,87.428624 234.208635,87.428624 C238.100529,87.428624 241.320608,86.803141 243.868872,85.5521749 C246.417136,84.3012089 248.50208,82.6795863 250.123702,80.6873072 C251.745325,78.695028 252.973125,76.4710884 253.807102,74.0154885 C254.64108,71.5598885 255.289729,69.0811226 255.753049,66.5791906 L266.455759,6.67181868 L289.251139,6.67181868 L278.409434,68.9421264 Z M419.4906,35.8610254 L412.818781,73.3900055 C412.633453,74.4093111 412.494456,75.4054507 412.401792,76.3784243 C412.309128,77.3513978 412.262796,78.3012053 412.262796,79.2278468 C412.262796,81.7297788 412.934611,83.9073863 414.278241,85.7606693 C415.621871,87.6139522 418.007973,88.5405937 421.436547,88.5405937 C423.475158,88.5405937 425.305275,88.1236051 426.926897,87.2896277 C428.54852,86.4556504 429.961648,85.3436806 431.166282,83.9537184 C432.370916,82.5637562 433.390222,80.9421336 434.224199,79.0888506 C435.058176,77.2355676 435.660493,75.2896205 436.03115,73.2510093 L442.702969,35.8610254 L464.942364,35.8610254 L455.212629,90.7645333 C454.841972,92.5251521 454.448149,94.7954237 454.031161,97.5753482 C453.614172,100.355273 453.313014,102.857205 453.127685,105.081144 L432.00026,105.081144 C432.092924,103.969174 432.255086,102.370718 432.486746,100.285775 C432.718407,98.2008312 432.926901,96.4633784 433.112229,95.0734162 L432.695241,95.0734162 C430.563965,98.4093255 427.621879,101.212416 423.868981,103.482688 C420.116083,105.752959 415.830366,106.888095 411.01183,106.888095 C407.2126,106.888095 403.923023,106.308944 401.143098,105.150642 C398.363174,103.99234 396.069736,102.440216 394.262785,100.494269 C392.455834,98.5483218 391.13537,96.3012162 390.301393,93.7529521 C389.467415,91.204688 389.050427,88.5405937 389.050427,85.7606693 C389.050427,84.5560354 389.096759,83.3282354 389.189423,82.0772694 C389.282087,80.8263034 389.467415,79.5521713 389.745408,78.2548733 L397.112208,35.8610254 L419.4906,35.8610254 Z M407.397928,6.67181868 L403.923023,26.5482785 L376.957755,26.5482785 L363.058133,105.081144 L339.98476,105.081144 L353.745386,26.5482785 L326.224134,26.5482785 L329.838036,6.67181868 L407.397928,6.67181868 Z M565.436633,0 L557.235856,44.7567836 L557.513848,44.7567836 C559.923116,41.5135385 563.096863,38.9189423 567.03509,36.9729952 C570.973316,35.0270481 575.166369,34.0540745 579.614248,34.0540745 C584.062127,34.0540745 588.069851,34.7953877 591.637421,36.2780141 C595.204991,37.7606404 598.216576,39.8224177 600.672176,42.463346 C603.127775,45.1042742 605.004224,48.2548552 606.301523,51.9150891 C607.598821,55.575323 608.24747,59.5367153 608.24747,63.7992661 C608.24747,69.7297716 607.297662,75.3127866 605.398047,80.5483109 C603.498432,85.7838353 600.834338,90.3475446 597.405764,94.2394389 C593.977191,98.1313331 589.9463,101.18925 585.313093,103.41319 C580.679886,105.637129 575.583357,106.749099 570.023508,106.749099 C565.112309,106.749099 560.594931,105.729793 556.471377,103.691182 C552.347822,101.652571 549.220407,98.8263142 547.089132,95.2124124 L546.811139,95.2124124 L545.143185,105.081144 L524.571744,105.081144 L543.058241,0 L565.436633,0 Z M522.903789,34.0540745 C523.737766,34.0540745 524.59491,34.1004066 525.475219,34.1930707 C526.355529,34.2857349 527.073676,34.4247311 527.629661,34.6100594 L524.015759,54.347523 C522.996453,54.0695306 522.02348,53.8842023 521.096838,53.7915381 C520.170197,53.698874 519.289887,53.6525419 518.45591,53.6525419 C515.212665,53.6525419 512.479072,54.2085268 510.255133,55.3204966 C508.031193,56.4324663 506.201076,57.7992625 504.764782,59.4208851 C503.328488,61.0425077 502.26285,62.7799605 501.567869,64.6332435 C500.872888,66.4865264 500.386401,68.108149 500.108409,69.4981112 L493.853579,105.081144 L471.614183,105.081144 L481.482915,50.1776363 C481.853571,48.4170175 482.247394,46.1467459 482.664383,43.3668214 C483.081371,40.586897 483.38253,38.084965 483.567858,35.8610254 L504.695284,35.8610254 C504.695284,36.3243461 504.648952,36.9961612 504.556288,37.8764706 C504.463624,38.75678 504.347793,39.6834215 504.208797,40.6563951 C504.069801,41.6293686 503.930805,42.6023422 503.791808,43.5753158 C503.652812,44.5482893 503.536982,45.3591006 503.444318,46.0077496 L503.72231,46.0077496 C505.94625,42.486512 508.610344,39.6139234 511.714593,37.3899839 C514.818842,35.1660443 518.548574,34.0540745 522.903789,34.0540745 Z M571.830459,51.9845872 C569.050535,51.9845872 566.455939,52.5869042 564.046671,53.7915381 C561.637403,54.996172 559.575626,56.6177946 557.861339,58.6564059 C556.147052,60.6950172 554.780256,63.0579529 553.76095,65.7452132 C552.741645,68.4324735 552.231992,71.2587301 552.231992,74.2239828 C552.231992,78.4865336 553.52929,81.9846052 556.123886,84.7181976 C558.718482,87.45179 562.286052,88.8185862 566.826595,88.8185862 C569.791848,88.8185862 572.455942,88.2394352 574.818878,87.0811334 C577.181814,85.9228315 579.197259,84.347541 580.865214,82.3552618 C582.533168,80.3629826 583.830467,78.0232129 584.757108,75.3359526 C585.68375,72.6486923 586.14707,69.7761037 586.14707,66.7181868 C586.14707,62.5483001 584.942436,59.0502285 582.533168,56.223972 C580.123901,53.3977155 576.556331,51.9845872 571.830459,51.9845872 Z M652.726261,107.027091 C647.722397,107.027091 643.066023,106.33211 638.75714,104.942148 C634.448258,103.552186 630.741692,101.536741 627.637443,98.8958123 C624.533194,96.2548841 622.077594,93.057971 620.270643,89.305073 C618.463692,85.5521749 617.560217,81.3127902 617.560217,76.5869186 C617.560217,70.8417414 618.53319,65.3745566 620.479137,60.1853643 C622.425084,54.996172 625.228175,50.4556288 628.888409,46.5637345 C632.548643,42.6718403 636.973356,39.5675913 642.162548,37.2509876 C647.35174,34.9343839 653.235914,33.7760821 659.815068,33.7760821 C664.911596,33.7760821 669.637468,34.4710632 673.992683,35.8610254 C678.347898,37.2509876 682.100796,39.2664329 685.251377,41.9073611 C688.401958,44.5482893 690.880724,47.7452024 692.687675,51.4981004 C694.494626,55.2509984 695.398101,59.4903832 695.398101,64.2162548 C695.398101,70.0540961 694.425128,75.567613 692.47918,80.7568053 C690.533233,85.9459976 687.706977,90.4865408 684.000411,94.3784351 C680.293845,98.2703293 675.8228,101.351412 670.587275,103.621684 C665.351751,105.891956 659.39808,107.027091 652.726261,107.027091 Z M673.436698,66.5791906 C673.436698,62.4093039 672.162566,58.9343983 669.614302,56.1544739 C667.066038,53.3745494 663.475302,51.9845872 658.842095,51.9845872 C655.876842,51.9845872 653.189582,52.5869042 650.780314,53.7915381 C648.371046,54.996172 646.332435,56.6177946 644.66448,58.6564059 C642.996525,60.6950172 641.699227,63.0579529 640.772586,65.7452132 C639.845944,68.4324735 639.382623,71.2587301 639.382623,74.2239828 C639.382623,78.3938695 640.633589,81.845609 643.135522,84.5792014 C645.637454,87.3127938 649.205023,88.67959 653.838231,88.67959 C656.803483,88.67959 659.490744,88.100439 661.900012,86.9421372 C664.309279,85.7838353 666.371057,84.1853788 668.085343,82.1467675 C669.79963,80.1081562 671.120094,77.7452205 672.046736,75.0579601 C672.973377,72.3706998 673.436698,69.5444433 673.436698,66.5791906 Z M795.89237,105.081144 L781.297767,69.9150999 L752.664545,105.081144 L724.031323,105.081144 L770.178069,53.096557 L748.494658,6.67181868 L774.486952,6.67181868 L786.857616,37.8069725 L811.876936,6.67181868 L839.815176,6.67181868 L798.11631,53.6525419 L822.440649,105.081144 L795.89237,105.081144 Z"
      id="path-1"
    ></path>
  </defs>
  <g id="magic-os-定稿" stroke="none" stroke-width="1" fill="none" fill-rule="evenodd">
    <g id="编组-19">
      <path
        d="M858,0 L858,119 L0,119 L0,0 L858,0 Z M67.2394172,10.0308905 C58.8996439,10.0308905 51.1853535,11.606181 44.0965462,14.756762 C37.0077388,17.9073431 30.845573,22.239392 25.6100486,27.7529088 C20.3745242,33.2664256 16.2973017,39.72975 13.378381,47.1428819 C10.4594603,54.5560137 9,62.4787984 9,70.9112359 C9,77.4903904 10.1351358,83.4208959 12.4054075,88.7027524 C14.6756791,93.9846088 17.8494262,98.47882 21.9266487,102.185386 C26.0038712,105.891952 30.9382371,108.741374 36.7297464,110.733654 C42.5212557,112.725933 48.9382479,113.722072 55.9807232,113.722072 C62.6525419,113.722072 69.1158662,112.934427 75.3706962,111.359137 C81.6255263,109.783846 87.2548733,107.698903 92.2587373,105.104307 L101.293492,53.1197194 L60.845591,53.1197194 L57.3706854,72.1622019 L76.5521641,72.1622019 L73.355251,90.6486995 C71.3166398,91.6680051 69.1158662,92.3861523 66.7529304,92.803141 C64.3899947,93.2201296 61.8185645,93.474956 59.0386401,93.5676202 C54.8687534,93.5676202 51.1621875,92.9421372 47.9189423,91.6911712 C44.6756971,90.4402052 41.9421047,88.6795863 39.7181652,86.4093147 C37.4942256,84.1390431 35.8262709,81.4517828 34.7143012,78.3475338 C33.6023314,75.2432848 33.0463465,71.8842095 33.0463465,68.2703077 C33.0463465,63.1737795 33.9034899,58.3320778 35.6177766,53.7452024 C37.3320634,49.1583271 39.6949991,45.1274366 42.706584,41.6525311 C45.7181688,38.1776255 49.2857385,35.4208671 53.4092931,33.3822558 C57.5328477,31.3436446 62.0038928,30.3243389 66.8224286,30.3243389 C71.7336284,30.3243389 75.7876849,31.2278144 78.984598,33.0347653 C82.1815111,34.8417162 84.7066092,37.0888218 86.5598922,39.7760821 L103.378435,24.6254938 C99.7645333,19.8069581 94.7838353,16.1698903 88.4363412,13.7142903 C82.088847,11.2586904 75.0232057,10.0308905 67.2394172,10.0308905 Z M237.648786,12.6718187 L214.714409,12.6718187 L203.872704,74.3861415 C203.687376,75.7761037 203.525213,77.212398 203.386217,78.6950244 C203.247221,80.1776507 203.177723,81.567613 203.177723,82.864911 C203.177723,87.5907826 204.081198,91.8533334 205.888149,95.6525635 C207.6951,99.4517936 210.289696,102.671873 213.671938,105.312801 C217.054179,107.953729 221.131402,109.99234 225.903605,111.428635 C230.675809,112.864929 236.027163,113.583076 241.957669,113.583076 C248.722152,113.583076 254.698989,112.656435 259.888182,110.803152 C265.077374,108.949869 269.548419,106.355273 273.301317,103.019363 C277.054215,99.683454 280.088966,95.6293975 282.40557,90.8571938 C284.722173,86.0849902 286.390128,80.7799677 287.409434,74.9421264 L298.251139,12.6718187 L275.455759,12.6718187 L264.753049,72.5791906 C264.289729,75.0811226 263.64108,77.5598885 262.807102,80.0154885 C261.973125,82.4710884 260.745325,84.695028 259.123702,86.6873072 C257.50208,88.6795863 255.417136,90.3012089 252.868872,91.5521749 C250.320608,92.803141 247.100529,93.428624 243.208635,93.428624 C240.243382,93.428624 237.695118,93.0116353 235.563843,92.1776579 C233.432567,91.3436806 231.718281,90.2085448 230.420982,88.7722505 C229.123684,87.3359562 228.173877,85.6911676 227.57156,83.8378846 C226.969243,81.9846016 226.668084,80.0386545 226.668084,78.0000433 C226.668084,77.1660659 226.69125,76.2394244 226.737583,75.2201188 C226.783915,74.2008132 226.899745,73.2278396 227.085073,72.3011981 L237.648786,12.6718187 Z M668.815068,39.7760821 C662.235914,39.7760821 656.35174,40.9343839 651.162548,43.2509876 C645.973356,45.5675913 641.548643,48.6718403 637.888409,52.5637345 C634.228175,56.4556288 631.425084,60.996172 629.479137,66.1853643 C627.53319,71.3745566 626.560217,76.8417414 626.560217,82.5869186 C626.560217,87.3127902 627.463692,91.5521749 629.270643,95.305073 C631.077594,99.057971 633.533194,102.254884 636.637443,104.895812 C639.741692,107.536741 643.448258,109.552186 647.75714,110.942148 C652.066023,112.33211 656.722397,113.027091 661.726261,113.027091 C668.39808,113.027091 674.351751,111.891956 679.587275,109.621684 C684.8228,107.351412 689.293845,104.270329 693.000411,100.378435 C696.706977,96.4865408 699.533233,91.9459976 701.47918,86.7568053 C703.425128,81.567613 704.398101,76.0540961 704.398101,70.2162548 C704.398101,65.4903832 703.494626,61.2509984 701.687675,57.4981004 C699.880724,53.7452024 697.401958,50.5482893 694.251377,47.9073611 C691.100796,45.2664329 687.347898,43.2509876 682.992683,41.8610254 C678.637468,40.4710632 673.911596,39.7760821 668.815068,39.7760821 Z M428.4906,41.8610254 L406.112208,41.8610254 L398.745408,84.2548733 C398.467415,85.5521713 398.282087,86.8263034 398.189423,88.0772694 C398.096759,89.3282354 398.050427,90.5560354 398.050427,91.7606693 C398.050427,94.5405937 398.467415,97.204688 399.301393,99.7529521 C400.13537,102.301216 401.455834,104.548322 403.262785,106.494269 C405.069736,108.440216 407.363174,109.99234 410.143098,111.150642 C412.923023,112.308944 416.2126,112.888095 420.01183,112.888095 C424.830366,112.888095 429.116083,111.752959 432.868981,109.482688 C436.621879,107.212416 439.563965,104.409326 441.695241,101.073416 L442.112229,101.073416 C441.926901,102.463378 441.718407,104.200831 441.486746,106.285775 C441.255086,108.370718 441.092924,109.969174 441.00026,111.081144 L462.127685,111.081144 C462.313014,108.857205 462.614172,106.355273 463.031161,103.575348 C463.448149,100.795424 463.841972,98.5251521 464.212629,96.7645333 L473.942364,41.8610254 L451.702969,41.8610254 L445.03115,79.2510093 C444.660493,81.2896205 444.058176,83.2355676 443.224199,85.0888506 C442.390222,86.9421336 441.370916,88.5637562 440.166282,89.9537184 C438.961648,91.3436806 437.54852,92.4556504 435.926897,93.2896277 C434.305275,94.1236051 432.475158,94.5405937 430.436547,94.5405937 C427.007973,94.5405937 424.621871,93.6139522 423.278241,91.7606693 C421.934611,89.9073863 421.262796,87.7297788 421.262796,85.2278468 C421.262796,84.3012053 421.309128,83.3513978 421.401792,82.3784243 C421.494456,81.4054507 421.633453,80.4093111 421.818781,79.3900055 L428.4906,41.8610254 Z M574.436633,6 L552.058241,6 L533.571744,111.081144 L554.143185,111.081144 L555.811139,101.212412 L556.089132,101.212412 C558.220407,104.826314 561.347822,107.652571 565.471377,109.691182 C569.594931,111.729793 574.112309,112.749099 579.023508,112.749099 C584.583357,112.749099 589.679886,111.637129 594.313093,109.41319 C598.9463,107.18925 602.977191,104.131333 606.405764,100.239439 C609.834338,96.3475446 612.498432,91.7838353 614.398047,86.5483109 C616.297662,81.3127866 617.24747,75.7297716 617.24747,69.7992661 C617.24747,65.5367153 616.598821,61.575323 615.301523,57.9150891 C614.004224,54.2548552 612.127775,51.1042742 609.672176,48.463346 C607.216576,45.8224177 604.204991,43.7606404 600.637421,42.2780141 C597.069851,40.7953877 593.062127,40.0540745 588.614248,40.0540745 C584.166369,40.0540745 579.973316,41.0270481 576.03509,42.9729952 C572.096863,44.9189423 568.923116,47.5135385 566.513848,50.7567836 L566.235856,50.7567836 L574.436633,6 Z M159.671905,12.6718187 L127.285785,12.6718187 L109.911258,111.081144 L132.845634,111.081144 L139.517453,73.6911604 L152.166109,73.6911604 C158.745264,73.6911604 164.698935,73.0425113 170.027124,71.7452132 C175.355312,70.4479152 179.919022,68.4324699 183.718252,65.6988776 C187.517482,62.9652852 190.436402,59.4672136 192.475014,55.2046628 C194.513625,50.9421119 195.532931,45.8919159 195.532931,40.0540745 C195.532931,31.4363087 192.451848,24.718158 186.289682,19.8996222 C180.127516,15.0810865 171.254924,12.6718187 159.671905,12.6718187 Z M416.397928,12.6718187 L338.838036,12.6718187 L335.224134,32.5482785 L362.745386,32.5482785 L348.98476,111.081144 L372.058133,111.081144 L385.957755,32.5482785 L412.923023,32.5482785 L416.397928,12.6718187 Z M531.903789,40.0540745 C527.548574,40.0540745 523.818842,41.1660443 520.714593,43.3899839 C517.610344,45.6139234 514.94625,48.486512 512.72231,52.0077496 L512.444318,52.0077496 C512.536982,51.3591006 512.652812,50.5482893 512.791808,49.5753158 C512.930805,48.6023422 513.069801,47.6293686 513.208797,46.6563951 C513.347793,45.6834215 513.463624,44.75678 513.556288,43.8764706 C513.648952,42.9961612 513.695284,42.3243461 513.695284,41.8610254 L492.567858,41.8610254 C492.38253,44.084965 492.081371,46.586897 491.664383,49.3668214 C491.247394,52.1467459 490.853571,54.4170175 490.482915,56.1776363 L480.614183,111.081144 L502.853579,111.081144 L509.108409,75.4981112 C509.386401,74.108149 509.872888,72.4865264 510.567869,70.6332435 C511.26285,68.7799605 512.328488,67.0425077 513.764782,65.4208851 C515.201076,63.7992625 517.031193,62.4324663 519.255133,61.3204966 C521.479072,60.2085268 524.212665,59.6525419 527.45591,59.6525419 C528.289887,59.6525419 529.170197,59.698874 530.096838,59.7915381 C531.02348,59.8842023 531.996453,60.0695306 533.015759,60.347523 L536.629661,40.6100594 C536.073676,40.4247311 535.355529,40.2857349 534.475219,40.1930707 C533.59491,40.1004066 532.737766,40.0540745 531.903789,40.0540745 Z M783.486952,12.6718187 L757.494658,12.6718187 L779.178069,59.096557 L733.031323,111.081144 L761.664545,111.081144 L790.297767,75.9150999 L804.89237,111.081144 L831.440649,111.081144 L807.11631,59.6525419 L848.815176,12.6718187 L820.876936,12.6718187 L795.857616,43.8069725 L783.486952,12.6718187 Z M580.830459,57.9845872 C585.556331,57.9845872 589.123901,59.3977155 591.533168,62.223972 C593.942436,65.0502285 595.14707,68.5483001 595.14707,72.7181868 C595.14707,75.7761037 594.68375,78.6486923 593.757108,81.3359526 C592.830467,84.0232129 591.533168,86.3629826 589.865214,88.3552618 C588.197259,90.347541 586.181814,91.9228315 583.818878,93.0811334 C581.455942,94.2394352 578.791848,94.8185862 575.826595,94.8185862 C571.286052,94.8185862 567.718482,93.45179 565.123886,90.7181976 C562.52929,87.9846052 561.231992,84.4865336 561.231992,80.2239828 C561.231992,77.2587301 561.741645,74.4324735 562.76095,71.7452132 C563.780256,69.0579529 565.147052,66.6950172 566.861339,64.6564059 C568.575626,62.6177946 570.637403,60.996172 573.046671,59.7915381 C575.455939,58.5869042 578.050535,57.9845872 580.830459,57.9845872 Z M667.842095,57.9845872 C672.475302,57.9845872 676.066038,59.3745494 678.614302,62.1544739 C681.162566,64.9343983 682.436698,68.4093039 682.436698,72.5791906 C682.436698,75.5444433 681.973377,78.3706998 681.046736,81.0579601 C680.120094,83.7452205 678.79963,86.1081562 677.085343,88.1467675 C675.371057,90.1853788 673.309279,91.7838353 670.900012,92.9421372 C668.490744,94.100439 665.803483,94.67959 662.838231,94.67959 C658.205023,94.67959 654.637454,93.3127938 652.135522,90.5792014 C649.633589,87.845609 648.382623,84.3938695 648.382623,80.2239828 C648.382623,77.2587301 648.845944,74.4324735 649.772586,71.7452132 C650.699227,69.0579529 651.996525,66.6950172 653.66448,64.6564059 C655.332435,62.6177946 657.371046,60.996172 659.780314,59.7915381 C662.189582,58.5869042 664.876842,57.9845872 667.842095,57.9845872 Z M156.474992,31.4363087 C158.791596,31.4363087 160.922871,31.598471 162.868818,31.9227955 C164.814765,32.24712 166.48272,32.8262709 167.872682,33.6602483 C169.262645,34.4942256 170.351448,35.6293614 171.139094,37.0656557 C171.926739,38.50195 172.320561,40.2857349 172.320561,42.4170103 C172.320561,47.235546 170.536777,50.5946214 166.969207,52.4942364 C163.401637,54.3938515 158.606267,55.343659 152.583098,55.343659 L142.714366,55.343659 L147.023249,31.4363087 Z"
        id="形状结合"
        fill="#000000"
      ></path>
      <g id="蒙版-2备份" transform="translate(9.000000, 6.000000)">
        <mask id="mask-2" fill="white">
          <use xlink:href="#path-1"></use>
        </mask>
        <use id="蒙版" stroke="#FFFFFF" stroke-width="2" fill-rule="nonzero" xlink:href="#path-1"></use>
      </g>
    </g>
  </g>
</svg>
