<?xml version="1.0" encoding="UTF-8"?>
<svg
	width="727px"
	height="119px"
	viewBox="0 0 727 119"
	version="1.1"
	xmlns="http://www.w3.org/2000/svg"
  xmlns:xlink="http://www.w3.org/1999/xlink"
>
  <title>编组 17@2x</title>
  <g id="magic-os-定稿" stroke="none" stroke-width="1" fill="none" fill-rule="evenodd">
    <g id="编组-17">
      <path
        d="M727,0 L727,119 L0,119 L0,0 L727,0 Z M160.874018,11.8668514 C155.629323,11.8668514 150.695754,12.6002198 146.073311,14.0669565 C141.450867,15.5336932 137.40623,17.6226819 133.939398,20.3339226 C130.472565,23.0451632 127.739101,26.3342092 125.739006,30.2010606 C123.73891,34.067912 122.738862,38.4014524 122.738862,43.2016817 C122.738862,47.0240865 123.338891,50.2909092 124.538948,53.0021499 C125.739006,55.7133905 127.339082,58.0468353 129.339178,60.0024843 C131.339273,61.9581333 133.694941,63.6026563 136.406182,64.9360533 C139.117423,66.2694503 142.028673,67.4695077 145.139933,68.5362253 C149.584589,70.0474086 153.140315,71.7586015 155.807109,73.6698039 C158.473903,75.5810063 159.8073,78.1811305 159.8073,81.4701765 C159.8073,83.5147186 159.385058,85.2703581 158.540573,86.7370948 C157.696088,88.2038315 156.562701,89.4038889 155.14041,90.3372668 C153.71812,91.2706447 152.09582,91.9373432 150.273511,92.3373623 C148.451202,92.7373814 146.562223,92.937391 144.606574,92.937391 C140.873062,92.937391 137.183997,92.0484596 133.539378,90.2705969 C129.89476,88.4927342 127.139073,86.1815127 125.272317,83.3369324 L108.871533,96.6709027 C110.738289,99.0710173 113.005064,101.204453 115.671858,103.071208 C118.338652,104.937964 121.227679,106.471371 124.338939,107.671428 C127.450199,108.871486 130.694798,109.78264 134.072737,110.404892 C137.450676,111.027144 140.828616,111.33827 144.206555,111.33827 C148.740105,111.33827 153.318101,110.760465 157.940544,109.604854 C162.562987,108.449243 166.740965,106.604711 170.474476,104.071256 C174.207988,101.537802 177.252578,98.2709791 179.608246,94.270788 C181.963914,90.2705969 183.141748,85.425921 183.141748,79.7367604 C183.141748,76.181035 182.563943,73.0031054 181.408332,70.2029716 C180.252721,67.4028378 178.563752,64.8916067 176.341423,62.6692784 C174.119095,60.44695 171.407854,58.4690777 168.207701,56.7356616 C165.007548,55.0022454 161.36293,53.4243923 157.273846,52.0021021 C153.540334,50.6687051 150.629084,49.2241916 148.540095,47.6685617 C146.451106,46.1129319 145.406612,44.0017199 145.406612,41.3349258 C145.406612,39.2903837 145.873301,37.5569676 146.806679,36.1346774 C147.740057,34.7123872 148.895668,33.5345532 150.273511,32.6011753 C151.651355,31.6677973 153.184761,31.0010988 154.873731,30.6010797 C156.562701,30.2010606 158.162777,30.001051 159.67396,30.001051 C162.963006,30.001051 165.940926,30.623303 168.60772,31.8678069 C171.274514,33.1123108 173.496843,34.9346201 175.274706,37.3347347 L190.342092,24.0007644 C188.830909,22.0451154 186.964153,20.3116993 184.741824,18.800516 C182.519496,17.2893327 180.097158,16.0226055 177.474811,15.0003344 C174.852463,13.9780634 172.118999,13.2002484 169.274419,12.6668896 C166.429839,12.1335308 163.629705,11.8668514 160.874018,11.8668514 Z M62.8693357,12.0001911 C54.6911672,12.0001911 47.2019205,13.4891511 40.4015957,16.4670712 C33.6012708,19.4449912 27.7121006,23.5340754 22.734085,28.7343239 C17.7560694,33.9345723 13.889218,40.0237521 11.1335308,47.0018632 C8.3778436,53.9799744 7,61.469221 7,69.4696032 C7,75.7810158 8.04449434,81.5146231 10.133483,86.6704249 C12.2224717,91.8262268 15.2448383,96.226437 19.2005829,99.8710556 C23.1563274,103.515674 27.97878,106.315808 33.6679407,108.271457 C39.3571013,110.227106 45.8018537,111.20493 53.0021976,111.20493 C61.1803661,111.20493 68.6696128,109.71597 75.4699376,106.73805 C82.2702625,103.76013 88.1149862,99.671046 93.0041086,94.4707976 C97.8932311,89.2705492 101.693413,83.1813694 104.404653,76.2032582 C107.115894,69.2251471 108.471514,61.7359004 108.471514,53.7355182 C108.471514,47.4241056 107.42702,41.6904984 105.338031,36.5346965 C103.249042,31.3788946 100.248899,26.9786844 96.3376012,23.3340659 C92.4263032,19.6894473 87.6482972,16.8893136 82.0035831,14.9336646 C76.358869,12.9780156 69.9807865,12.0001911 62.8693357,12.0001911 Z M545.692401,40.4015479 C539.380989,40.4015479 533.736275,41.5127121 528.758259,43.7350405 C523.780243,45.9573689 519.535596,48.9352889 516.024317,52.6688006 C512.513038,56.4023123 509.824021,60.7580759 507.957265,65.7360915 C506.090509,70.7141071 505.157132,75.9588021 505.157132,81.4701765 C505.157132,86.0037264 506.02384,90.0705874 507.757256,93.6707594 C509.490672,97.2709314 511.84634,100.337745 514.82426,102.871199 C517.80218,105.404653 521.357905,107.338079 525.491436,108.671476 C529.624967,110.004873 534.091847,110.671572 538.892076,110.671572 C545.292382,110.671572 551.003766,109.582631 556.026228,107.404749 C561.04869,105.226867 565.337784,102.27117 568.89351,98.5376585 C572.449235,94.8041468 575.160476,90.4483832 577.027232,85.4703676 C578.893987,80.492352 579.827365,75.2032105 579.827365,69.6029429 C579.827365,65.069393 578.960657,61.0025321 577.227241,57.4023601 C575.493825,53.8021881 573.115934,50.7353749 570.093567,48.2019205 C567.0712,45.6684662 563.471028,43.7350405 559.293051,42.4016434 C555.115074,41.0682464 550.581524,40.4015479 545.692401,40.4015479 Z M315.148054,42.4016434 L293.680362,42.4016434 L286.613358,83.070253 C286.346678,84.3147569 286.168892,85.5370375 286.079999,86.7370948 C285.991106,87.9371521 285.946659,89.1149862 285.946659,90.2705969 C285.946659,92.937391 286.346678,95.4930686 287.146717,97.9376299 C287.946755,100.382191 289.213482,102.53785 290.946898,104.404605 C292.680314,106.271361 294.880419,107.760321 297.547213,108.871486 C300.214008,109.98265 303.369714,110.538232 307.014332,110.538232 C311.636775,110.538232 315.748083,109.449291 319.348255,107.271409 C322.948427,105.093527 325.770784,102.40451 327.815326,99.2043571 L328.215345,99.2043571 C328.037559,100.537754 327.837549,102.2045 327.615317,104.204596 C327.393084,106.204691 327.237521,107.738098 327.148628,108.804816 L347.416263,108.804816 C347.594049,106.67138 347.882951,104.271266 348.282971,101.604472 C348.68299,98.9376776 349.060786,96.7597958 349.416358,95.0708263 L358.750137,42.4016434 L337.415785,42.4016434 L331.015479,78.2700236 C330.659906,80.2256726 330.082101,82.0924285 329.282063,83.8702912 C328.482025,85.6481539 327.5042,87.2037838 326.348589,88.5371808 C325.192979,89.8705778 323.837358,90.9372954 322.281728,91.7373337 C320.726099,92.5373719 318.970459,92.937391 317.01481,92.937391 C313.725764,92.937391 311.436766,92.0484596 310.147815,90.2705969 C308.858865,88.4927342 308.21439,86.4037455 308.21439,84.0036309 C308.21439,83.1146995 308.258836,82.2035449 308.347729,81.270167 C308.436623,80.336789 308.569962,79.3811878 308.747749,78.4033633 L315.148054,42.4016434 Z M455.154743,8 L433.687051,8 L415.95287,108.804816 L435.687146,108.804816 L437.287223,99.3376968 L437.553902,99.3376968 C439.598444,102.804529 442.598587,105.51577 446.554332,107.471419 C450.510076,109.427068 454.843617,110.404892 459.554953,110.404892 C464.888541,110.404892 469.777664,109.338175 474.22232,107.204739 C478.666977,105.071304 482.533829,102.137831 485.822875,98.4043188 C489.111921,94.6708071 491.667598,90.2928202 493.489907,85.2703581 C495.312217,80.2478959 496.223371,74.8920845 496.223371,69.2029238 C496.223371,65.1138396 495.601119,61.313658 494.356616,57.8023792 C493.112112,54.2911003 491.312026,51.2687337 488.956358,48.7352794 C486.600689,46.201825 483.711663,44.2239527 480.289277,42.8016626 C476.866891,41.3793724 473.022263,40.6682273 468.755393,40.6682273 C464.488522,40.6682273 460.466108,41.6016052 456.688149,43.4683611 C452.910191,45.3351169 449.865601,47.8241247 447.55438,50.9353845 L447.2877,50.9353845 L455.154743,8 Z M303.5475,14.4003058 L229.143946,14.4003058 L225.677113,33.4678833 L252.078375,33.4678833 L238.877744,108.804816 L261.012135,108.804816 L274.346105,33.4678833 L300.214008,33.4678833 L303.5475,14.4003058 Z M414.352794,40.6682273 C410.174816,40.6682273 406.596867,41.7349449 403.618947,43.8683802 C400.641027,46.0018154 398.08535,48.7575026 395.951915,52.1354418 L395.685235,52.1354418 C395.774128,51.5131898 395.885245,50.7353749 396.018584,49.801997 L396.418603,47.0018632 C396.551943,46.0684853 396.66306,45.1795539 396.751953,44.3350691 C396.840846,43.4905844 396.885292,42.8461091 396.885292,42.4016434 L376.617658,42.4016434 C376.439871,44.5350787 376.150969,46.9351934 375.750949,49.6019874 C375.35093,52.2687815 374.973135,54.4466633 374.617562,56.1356329 L365.150443,108.804816 L386.484796,108.804816 L392.485082,74.6698516 C392.751762,73.3364546 393.218451,71.7808247 393.885149,70.002962 C394.551848,68.2250993 395.574119,66.558353 396.951962,65.0027232 C398.329806,63.4470933 400.085445,62.1359195 402.218881,61.0692019 C404.352316,60.0024843 406.974663,59.4691255 410.085923,59.4691255 C410.885961,59.4691255 411.730446,59.513572 412.619377,59.6024652 C413.508309,59.6913583 414.441687,59.8691446 415.419511,60.135824 L418.886343,41.2015861 C418.352985,41.0237998 417.664063,40.8904601 416.819578,40.801567 C415.975093,40.7126739 415.152832,40.6682273 414.352794,40.6682273 Z M655.697657,14.4003058 L630.763132,14.4003058 L651.564126,58.9357667 L607.295344,108.804816 L634.763323,108.804816 L662.231302,75.0698708 L676.231971,108.804816 L701.699854,108.804816 L678.365406,59.4691255 L718.367317,14.4003058 L691.566037,14.4003058 L667.56489,44.2683993 L655.697657,14.4003058 Z M461.288369,57.869049 C465.821919,57.869049 469.244305,59.2246693 471.555526,61.93591 C473.866748,64.6471506 475.022359,68.0028665 475.022359,72.0030576 C475.022359,74.9365311 474.577893,77.6922183 473.688962,80.2701192 C472.80003,82.8480201 471.555526,85.0925718 469.95545,87.0037742 C468.355373,88.9149766 466.421948,90.4261599 464.155173,91.5373241 C461.888398,92.6484883 459.33272,93.2040704 456.48814,93.2040704 C452.132376,93.2040704 448.70999,91.8928967 446.220983,89.2705492 C443.731975,86.6482017 442.487471,83.2924858 442.487471,79.2034016 C442.487471,76.3588212 442.976383,73.6475806 443.954208,71.0696797 C444.932032,68.4917787 446.243206,66.2250038 447.887729,64.2693548 C449.532252,62.3137058 451.510124,60.7580759 453.821346,59.6024652 C456.132567,58.4468544 458.621575,57.869049 461.288369,57.869049 Z M544.759023,57.869049 C549.20368,57.869049 552.648289,59.2024461 555.09285,61.8692401 C557.537412,64.5360342 558.759692,67.8695268 558.759692,71.8697179 C558.759692,74.7142982 558.315227,77.4255388 557.426295,80.0034398 C556.537364,82.5813407 555.270637,84.8481157 553.626114,86.8037646 C551.981591,88.7594136 550.003718,90.2928202 547.692497,91.4039844 C545.381275,92.5151486 542.803374,93.0707307 539.958794,93.0707307 C535.514137,93.0707307 532.091752,91.759557 529.691637,89.1372095 C527.291522,86.514862 526.091465,83.2035927 526.091465,79.2034016 C526.091465,76.3588212 526.535931,73.6475806 527.424862,71.0696797 C528.313793,68.4917787 529.558297,66.2250038 531.158374,64.2693548 C532.75845,62.3137058 534.714099,60.7580759 537.025321,59.6024652 C539.336542,58.4468544 541.914443,57.869049 544.759023,57.869049 Z M61.4025989,31.7344672 C65.2250038,31.7344672 68.6473895,32.3567191 71.6697561,33.601223 C74.6921227,34.8457269 77.2033538,36.5346965 79.2034493,38.6681318 C81.2035449,40.801567 82.7369515,43.3127981 83.8036691,46.201825 C84.8703867,49.0908519 85.4037455,52.1798884 85.4037455,55.4689344 C85.4037455,60.0024843 84.6926005,64.4249178 83.2703103,68.7362349 C81.8480201,73.0475519 79.803478,76.8699568 77.1366839,80.2034493 C74.4698899,83.5369419 71.2030671,86.203736 67.3362157,88.2038315 C63.4693643,90.2039271 59.0913774,91.2039749 54.202255,91.2039749 C50.290957,91.2039749 46.846348,90.5817229 43.868428,89.337219 C40.8905079,88.0927151 38.3792768,86.4037455 36.3347347,84.2703103 C34.2901926,82.136875 32.7345627,79.625644 31.6678451,76.736617 C30.6011275,73.8475901 30.0677687,70.7585537 30.0677687,67.4695077 C30.0677687,62.9359578 30.801137,58.5357475 32.2678738,54.268877 C33.7346105,50.0020065 35.8235992,46.201825 38.5348398,42.8683324 C41.2460805,39.5348398 44.5351265,36.8458225 48.4019779,34.8012804 C52.2688293,32.7567382 56.6023696,31.7344672 61.4025989,31.7344672 Z"
        id="形状结合"
				fill="#000000"
			></path>
      <path
        d="M62.8693357,12.0001911 C69.9807865,12.0001911 76.358869,12.9780156 82.0035831,14.9336646 C87.6482972,16.8893136 92.4263032,19.6894473 96.3376012,23.3340659 C100.248899,26.9786844 103.249042,31.3788946 105.338031,36.5346965 C107.42702,41.6904984 108.471514,47.4241056 108.471514,53.7355182 C108.471514,61.7359004 107.115894,69.2251471 104.404653,76.2032582 C101.693413,83.1813694 97.8932311,89.2705492 93.0041086,94.4707976 C88.1149862,99.671046 82.2702625,103.76013 75.4699376,106.73805 C68.6696128,109.71597 61.1803661,111.20493 53.0021976,111.20493 C45.8018537,111.20493 39.3571013,110.227106 33.6679407,108.271457 C27.97878,106.315808 23.1563274,103.515674 19.2005829,99.8710556 C15.2448383,96.226437 12.2224717,91.8262268 10.133483,86.6704249 C8.04449434,81.5146231 7,75.7810158 7,69.4696032 C7,61.469221 8.3778436,53.9799744 11.1335308,47.0018632 C13.889218,40.0237521 17.7560694,33.9345723 22.734085,28.7343239 C27.7121006,23.5340754 33.6012708,19.4449912 40.4015957,16.4670712 C47.2019205,13.4891511 54.6911672,12.0001911 62.8693357,12.0001911 Z M54.202255,91.2039749 C59.0913774,91.2039749 63.4693643,90.2039271 67.3362157,88.2038315 C71.2030671,86.203736 74.4698899,83.5369419 77.1366839,80.2034493 C79.803478,76.8699568 81.8480201,73.0475519 83.2703103,68.7362349 C84.6926005,64.4249178 85.4037455,60.0024843 85.4037455,55.4689344 C85.4037455,52.1798884 84.8703867,49.0908519 83.8036691,46.201825 C82.7369515,43.3127981 81.2035449,40.801567 79.2034493,38.6681318 C77.2033538,36.5346965 74.6921227,34.8457269 71.6697561,33.601223 C68.6473895,32.3567191 65.2250038,31.7344672 61.4025989,31.7344672 C56.6023696,31.7344672 52.2688293,32.7567382 48.4019779,34.8012804 C44.5351265,36.8458225 41.2460805,39.5348398 38.5348398,42.8683324 C35.8235992,46.201825 33.7346105,50.0020065 32.2678738,54.268877 C30.801137,58.5357475 30.0677687,62.9359578 30.0677687,67.4695077 C30.0677687,70.7585537 30.6011275,73.8475901 31.6678451,76.736617 C32.7345627,79.625644 34.2901926,82.136875 36.3347347,84.2703103 C38.3792768,86.4037455 40.8905079,88.0927151 43.868428,89.337219 C46.846348,90.5817229 50.290957,91.2039749 54.202255,91.2039749 Z M175.274706,37.3347347 C173.496843,34.9346201 171.274514,33.1123108 168.60772,31.8678069 C165.940926,30.623303 162.963006,30.001051 159.67396,30.001051 C158.162777,30.001051 156.562701,30.2010606 154.873731,30.6010797 C153.184761,31.0010988 151.651355,31.6677973 150.273511,32.6011753 C148.895668,33.5345532 147.740057,34.7123872 146.806679,36.1346774 C145.873301,37.5569676 145.406612,39.2903837 145.406612,41.3349258 C145.406612,44.0017199 146.451106,46.1129319 148.540095,47.6685617 C150.629084,49.2241916 153.540334,50.6687051 157.273846,52.0021021 C161.36293,53.4243923 165.007548,55.0022454 168.207701,56.7356616 C171.407854,58.4690777 174.119095,60.44695 176.341423,62.6692784 C178.563752,64.8916067 180.252721,67.4028378 181.408332,70.2029716 C182.563943,73.0031054 183.141748,76.181035 183.141748,79.7367604 C183.141748,85.425921 181.963914,90.2705969 179.608246,94.270788 C177.252578,98.2709791 174.207988,101.537802 170.474476,104.071256 C166.740965,106.604711 162.562987,108.449243 157.940544,109.604854 C153.318101,110.760465 148.740105,111.33827 144.206555,111.33827 C140.828616,111.33827 137.450676,111.027144 134.072737,110.404892 C130.694798,109.78264 127.450199,108.871486 124.338939,107.671428 C121.227679,106.471371 118.338652,104.937964 115.671858,103.071208 C113.005064,101.204453 110.738289,99.0710173 108.871533,96.6709027 L125.272317,83.3369324 C127.139073,86.1815127 129.89476,88.4927342 133.539378,90.2705969 C137.183997,92.0484596 140.873062,92.937391 144.606574,92.937391 C146.562223,92.937391 148.451202,92.7373814 150.273511,92.3373623 C152.09582,91.9373432 153.71812,91.2706447 155.14041,90.3372668 C156.562701,89.4038889 157.696088,88.2038315 158.540573,86.7370948 C159.385058,85.2703581 159.8073,83.5147186 159.8073,81.4701765 C159.8073,78.1811305 158.473903,75.5810063 155.807109,73.6698039 C153.140315,71.7586015 149.584589,70.0474086 145.139933,68.5362253 C142.028673,67.4695077 139.117423,66.2694503 136.406182,64.9360533 C133.694941,63.6026563 131.339273,61.9581333 129.339178,60.0024843 C127.339082,58.0468353 125.739006,55.7133905 124.538948,53.0021499 C123.338891,50.2909092 122.738862,47.0240865 122.738862,43.2016817 C122.738862,38.4014524 123.73891,34.067912 125.739006,30.2010606 C127.739101,26.3342092 130.472565,23.0451632 133.939398,20.3339226 C137.40623,17.6226819 141.450867,15.5336932 146.073311,14.0669565 C150.695754,12.6002198 155.629323,11.8668514 160.874018,11.8668514 C163.629705,11.8668514 166.429839,12.1335308 169.274419,12.6668896 C172.118999,13.2002484 174.852463,13.9780634 177.474811,15.0003344 C180.097158,16.0226055 182.519496,17.2893327 184.741824,18.800516 C186.964153,20.3116993 188.830909,22.0451154 190.342092,24.0007644 L175.274706,37.3347347 Z M315.148054,42.4016434 L308.747749,78.4033633 C308.569962,79.3811878 308.436623,80.336789 308.347729,81.270167 C308.258836,82.2035449 308.21439,83.1146995 308.21439,84.0036309 C308.21439,86.4037455 308.858865,88.4927342 310.147815,90.2705969 C311.436766,92.0484596 313.725764,92.937391 317.01481,92.937391 C318.970459,92.937391 320.726099,92.5373719 322.281728,91.7373337 C323.837358,90.9372954 325.192979,89.8705778 326.348589,88.5371808 C327.5042,87.2037838 328.482025,85.6481539 329.282063,83.8702912 C330.082101,82.0924285 330.659906,80.2256726 331.015479,78.2700236 L337.415785,42.4016434 L358.750137,42.4016434 L349.416358,95.0708263 C349.060786,96.7597958 348.68299,98.9376776 348.282971,101.604472 C347.882951,104.271266 347.594049,106.67138 347.416263,108.804816 L327.148628,108.804816 C327.237521,107.738098 327.393084,106.204691 327.615317,104.204596 C327.837549,102.2045 328.037559,100.537754 328.215345,99.2043571 L327.815326,99.2043571 C325.770784,102.40451 322.948427,105.093527 319.348255,107.271409 C315.748083,109.449291 311.636775,110.538232 307.014332,110.538232 C303.369714,110.538232 300.214008,109.98265 297.547213,108.871486 C294.880419,107.760321 292.680314,106.271361 290.946898,104.404605 C289.213482,102.53785 287.946755,100.382191 287.146717,97.9376299 C286.346678,95.4930686 285.946659,92.937391 285.946659,90.2705969 C285.946659,89.1149862 285.991106,87.9371521 286.079999,86.7370948 C286.168892,85.5370375 286.346678,84.3147569 286.613358,83.070253 L293.680362,42.4016434 L315.148054,42.4016434 Z M303.5475,14.4003058 L300.214008,33.4678833 L274.346105,33.4678833 L261.012135,108.804816 L238.877744,108.804816 L252.078375,33.4678833 L225.677113,33.4678833 L229.143946,14.4003058 L303.5475,14.4003058 Z M455.154743,8 L447.2877,50.9353845 L447.55438,50.9353845 C449.865601,47.8241247 452.910191,45.3351169 456.688149,43.4683611 C460.466108,41.6016052 464.488522,40.6682273 468.755393,40.6682273 C473.022263,40.6682273 476.866891,41.3793724 480.289277,42.8016626 C483.711663,44.2239527 486.600689,46.201825 488.956358,48.7352794 C491.312026,51.2687337 493.112112,54.2911003 494.356616,57.8023792 C495.601119,61.313658 496.223371,65.1138396 496.223371,69.2029238 C496.223371,74.8920845 495.312217,80.2478959 493.489907,85.2703581 C491.667598,90.2928202 489.111921,94.6708071 485.822875,98.4043188 C482.533829,102.137831 478.666977,105.071304 474.22232,107.204739 C469.777664,109.338175 464.888541,110.404892 459.554953,110.404892 C454.843617,110.404892 450.510076,109.427068 446.554332,107.471419 C442.598587,105.51577 439.598444,102.804529 437.553902,99.3376968 L437.287223,99.3376968 L435.687146,108.804816 L415.95287,108.804816 L433.687051,8 L455.154743,8 Z M414.352794,40.6682273 C415.152832,40.6682273 415.975093,40.7126739 416.819578,40.801567 C417.664063,40.8904601 418.352985,41.0237998 418.886343,41.2015861 L415.419511,60.135824 C414.441687,59.8691446 413.508309,59.6913583 412.619377,59.6024652 C411.730446,59.513572 410.885961,59.4691255 410.085923,59.4691255 C406.974663,59.4691255 404.352316,60.0024843 402.218881,61.0692019 C400.085445,62.1359195 398.329806,63.4470933 396.951962,65.0027232 C395.574119,66.558353 394.551848,68.2250993 393.885149,70.002962 C393.218451,71.7808247 392.751762,73.3364546 392.485082,74.6698516 L386.484796,108.804816 L365.150443,108.804816 L374.617562,56.1356329 C374.973135,54.4466633 375.35093,52.2687815 375.750949,49.6019874 C376.150969,46.9351934 376.439871,44.5350787 376.617658,42.4016434 L396.885292,42.4016434 C396.885292,42.8461091 396.840846,43.4905844 396.751953,44.3350691 C396.66306,45.1795539 396.551943,46.0684853 396.418603,47.0018632 L396.018584,49.801997 C395.885245,50.7353749 395.774128,51.5131898 395.685235,52.1354418 L395.951915,52.1354418 C398.08535,48.7575026 400.641027,46.0018154 403.618947,43.8683802 C406.596867,41.7349449 410.174816,40.6682273 414.352794,40.6682273 Z M461.288369,57.869049 C458.621575,57.869049 456.132567,58.4468544 453.821346,59.6024652 C451.510124,60.7580759 449.532252,62.3137058 447.887729,64.2693548 C446.243206,66.2250038 444.932032,68.4917787 443.954208,71.0696797 C442.976383,73.6475806 442.487471,76.3588212 442.487471,79.2034016 C442.487471,83.2924858 443.731975,86.6482017 446.220983,89.2705492 C448.70999,91.8928967 452.132376,93.2040704 456.48814,93.2040704 C459.33272,93.2040704 461.888398,92.6484883 464.155173,91.5373241 C466.421948,90.4261599 468.355373,88.9149766 469.95545,87.0037742 C471.555526,85.0925718 472.80003,82.8480201 473.688962,80.2701192 C474.577893,77.6922183 475.022359,74.9365311 475.022359,72.0030576 C475.022359,68.0028665 473.866748,64.6471506 471.555526,61.93591 C469.244305,59.2246693 465.821919,57.869049 461.288369,57.869049 Z M538.892076,110.671572 C534.091847,110.671572 529.624967,110.004873 525.491436,108.671476 C521.357905,107.338079 517.80218,105.404653 514.82426,102.871199 C511.84634,100.337745 509.490672,97.2709314 507.757256,93.6707594 C506.02384,90.0705874 505.157132,86.0037264 505.157132,81.4701765 C505.157132,75.9588021 506.090509,70.7141071 507.957265,65.7360915 C509.824021,60.7580759 512.513038,56.4023123 516.024317,52.6688006 C519.535596,48.9352889 523.780243,45.9573689 528.758259,43.7350405 C533.736275,41.5127121 539.380989,40.4015479 545.692401,40.4015479 C550.581524,40.4015479 555.115074,41.0682464 559.293051,42.4016434 C563.471028,43.7350405 567.0712,45.6684662 570.093567,48.2019205 C573.115934,50.7353749 575.493825,53.8021881 577.227241,57.4023601 C578.960657,61.0025321 579.827365,65.069393 579.827365,69.6029429 C579.827365,75.2032105 578.893987,80.492352 577.027232,85.4703676 C575.160476,90.4483832 572.449235,94.8041468 568.89351,98.5376585 C565.337784,102.27117 561.04869,105.226867 556.026228,107.404749 C551.003766,109.582631 545.292382,110.671572 538.892076,110.671572 Z M558.759692,71.8697179 C558.759692,67.8695268 557.537412,64.5360342 555.09285,61.8692401 C552.648289,59.2024461 549.20368,57.869049 544.759023,57.869049 C541.914443,57.869049 539.336542,58.4468544 537.025321,59.6024652 C534.714099,60.7580759 532.75845,62.3137058 531.158374,64.2693548 C529.558297,66.2250038 528.313793,68.4917787 527.424862,71.0696797 C526.535931,73.6475806 526.091465,76.3588212 526.091465,79.2034016 C526.091465,83.2035927 527.291522,86.514862 529.691637,89.1372095 C532.091752,91.759557 535.514137,93.0707307 539.958794,93.0707307 C542.803374,93.0707307 545.381275,92.5151486 547.692497,91.4039844 C550.003718,90.2928202 551.981591,88.7594136 553.626114,86.8037646 C555.270637,84.8481157 556.537364,82.5813407 557.426295,80.0034398 C558.315227,77.4255388 558.759692,74.7142982 558.759692,71.8697179 Z M676.231971,108.804816 L662.231302,75.0698708 L634.763323,108.804816 L607.295344,108.804816 L651.564126,58.9357667 L630.763132,14.4003058 L655.697657,14.4003058 L667.56489,44.2683993 L691.566037,14.4003058 L718.367317,14.4003058 L678.365406,59.4691255 L701.699854,108.804816 L676.231971,108.804816 Z"
        id="形状结合备份"
				stroke="#FFFFFF"
				stroke-width="2"
				fill-rule="nonzero"
			></path>
    </g>
  </g>
</svg>
