<?xml version="1.0" encoding="UTF-8"?>
<svg
  width="115px"
  height="259px"
  viewBox="0 0 115 259"
  version="1.1"
  xmlns="http://www.w3.org/2000/svg"
  xmlns:xlink="http://www.w3.org/1999/xlink"
>
  <title>形状结合@3x</title>
  <g id="页面-1" stroke="none" stroke-width="1" fill="none" fill-rule="evenodd">
    <g id="link-turbo-x备份" transform="translate(-513.000000, -514.000000)" fill="#FFFFFF">
      <g id="编组-5" transform="translate(513.000000, 514.000000)">
        <path
          d="M58.2986111,0 L58.2986111,24.7808642 L70.3130922,24.7808642 L70.3130922,18.3858025 L87.8472222,18.3858025 L87.8472222,66.3487654 L70.2372781,66.3487654 L70.3130922,59.9537037 L66.2837778,59.9528025 L66.2847222,72.7438272 L62.988,72.743 L100.827,246.209 L115,246.209877 L115,259 L0,259 L0,246.209877 L14.172,246.209 L19.965,219.652 L19.9652778,219.030864 L20.101,219.03 L52.011,72.743 L48.7152778,72.7438272 L48.7147778,59.9528025 L44.7222222,59.9537037 L44.725603,66.3487654 L27.1527778,66.3487654 L27.1527778,18.3858025 L44.8138621,18.3858025 L44.8138621,24.7808642 L56.7013889,24.7808642 L56.7013889,0 L58.2986111,0 Z M92.359,222.383 L22.569,246.209 L97.556,246.209 L92.359,222.383 Z M82.918,222.228 L22.672,222.228 L17.825,244.449 L82.918,222.228 Z M28.693,195.049 L28.601,195.049 L23.37,219.03 L84.749,219.03 L28.693,195.049 Z M86.397,195.049 L36.819,195.049 L91.499,218.44 L86.397,195.049 Z M80.567,168.32 L35.53,191.851 L85.699,191.851 L80.567,168.32 Z M74.524,167.87 L34.53,167.87 L29.385,191.455 L74.524,167.87 Z M40.331,141.273 L35.227,164.672 L75.721,164.672 L40.331,141.273 Z M74.54,140.691 L45.247,140.691 L79.477,163.324 L74.54,140.691 Z M68.732,114.063 L43.947,137.493 L73.843,137.493 L68.732,114.063 Z M64.662,113.512 L46.387,113.512 L41.639,135.278 L64.662,113.512 Z M51.792,88.73 L47.084,110.314 L65.744,110.314 L51.792,88.73 Z M62.684,86.333 L54.047,86.333 L67.082,106.498 L62.684,86.333 Z M60.341,75.593 L54.403,83.135 L61.986,83.135 L60.341,75.593 Z M58.517,72.743 L55.2798611,72.7438272 L54.038,78.433 L58.517,72.743 Z M46.225771,26.8505499 C41.4422105,30.3389229 38.3333333,35.9896941 38.3333333,42.367284 C38.3333333,48.7448738 41.4422105,54.395645 46.225771,57.884018 L46.6955938,57.2375335 C42.1113125,53.8945132 39.1319444,48.4791691 39.1319444,42.367284 C39.1319444,36.2553988 42.1113125,30.8400547 46.6955938,27.4970344 L46.225771,26.8505499 Z M68.7745759,26.8508029 L68.3049462,27.4974282 C72.8889215,30.84048 75.8680556,36.2556388 75.8680556,42.367284 C75.8680556,48.4789291 72.8889215,53.8940879 68.3049462,57.2371397 L68.7745759,57.883765 C73.5579398,54.3953718 76.6666667,48.7447197 76.6666667,42.367284 C76.6666667,35.9898482 73.5579398,30.3391961 68.7745759,26.8508029 Z M48.5743106,30.0833911 C44.7874715,32.8450347 42.3263889,37.3184733 42.3263889,42.367284 C42.3263889,47.4160946 44.7874715,51.8895332 48.5743106,54.6511768 L49.0450638,54.0053708 C45.4569766,51.389134 43.125,47.1508033 43.125,42.367284 C43.125,37.5842115 45.4565409,33.3462257 49.0440583,30.7299303 L48.5743106,30.0833911 Z M66.4255389,30.0832813 L65.9556849,30.7297431 C69.5433478,33.3460235 71.875,37.5840974 71.875,42.367284 C71.875,47.1504705 69.5433478,51.3885444 65.9556849,54.0048248 L66.4255389,54.6512866 C70.2124633,51.8896517 72.6736111,47.4161615 72.6736111,42.367284 C72.6736111,37.3184064 70.2124633,32.8449162 66.4255389,30.0832813 Z M50.9238952,33.3154702 C48.1331852,35.3503236 46.3194444,38.6467882 46.3194444,42.367284 C46.3194444,46.0877797 48.1331852,49.3842443 50.9238952,51.4190977 L51.3930136,50.7720996 C48.801982,48.8825577 47.1180556,45.8217619 47.1180556,42.367284 C47.1180556,38.912806 48.801982,35.8520102 51.3930136,33.9624683 L50.9238952,33.3154702 Z M64.0761048,33.3154702 L63.6079897,33.9632001 C66.1984527,35.8528004 67.8819444,38.9132519 67.8819444,42.367284 C67.8819444,45.8217619 66.198018,48.8825577 63.6069864,50.7720996 L64.0761048,51.4190977 C66.8668148,49.3842443 68.6805556,46.0877797 68.6805556,42.367284 C68.6805556,38.6467882 66.8668148,35.3503236 64.0761048,33.3154702 Z M53.272885,36.5479831 C51.4786413,37.8560809 50.3125,39.9753674 50.3125,42.367284 C50.3125,44.7592005 51.4786413,46.878487 53.272885,48.1865848 L53.7416546,47.5393324 C52.1472869,46.3765257 51.1111111,44.4930277 51.1111111,42.367284 C51.1111111,40.2415402 52.1472869,38.3580422 53.7416546,37.1952355 L53.272885,36.5479831 Z M61.7276191,36.5483506 L61.2583454,37.1952355 C62.8527131,38.3580422 63.8888889,40.2415402 63.8888889,42.367284 C63.8888889,44.4930277 62.8527131,46.3765257 61.2583454,47.5393324 L61.7276191,48.1862173 C63.5215771,46.8780901 64.6875,44.7589765 64.6875,42.367284 C64.6875,39.9755914 63.5215771,37.8564778 61.7276191,36.5483506 Z M55.1506325,39.1350466 C54.1543803,39.8618242 53.5069444,41.0388726 53.5069444,42.367284 C53.5069444,43.6956953 54.1543803,44.8727437 55.1506325,45.5995213 L56.0904534,44.3066803 C55.4926602,43.870618 55.1041667,43.1643636 55.1041667,42.367284 C55.1041667,41.5702043 55.4926602,40.8639499 56.0904534,40.4278876 L55.1506325,39.1350466 Z M59.8495108,39.1351512 L58.9089938,40.4274845 C59.5071003,40.8635145 59.8958333,41.5699586 59.8958333,42.367284 C59.8958333,43.1646093 59.5071003,43.8710534 58.9089938,44.3070834 L59.8495108,45.5994167 C60.8456818,44.8726308 61.4930556,43.6956316 61.4930556,42.367284 C61.4930556,41.0389363 60.8456818,39.8619371 59.8495108,39.1351512 Z"
          id="形状结合"
        ></path>
      </g>
    </g>
  </g>
</svg>
