<?xml version="1.0" encoding="UTF-8"?>
<svg
  width="395px"
  height="65px"
  viewBox="0 0 395 65"
  version="1.1"
  xmlns="http://www.w3.org/2000/svg"
  xmlns:xlink="http://www.w3.org/1999/xlink"
>
  <title>magicos 7.0 svg/白色</title>
  <defs>
    <polygon id="path-1" points="0.00046925298 64 274.000469 64 274.000469 0 0.00046925298 0"></polygon>
  </defs>
  <g id="magic-os-定稿" stroke="none" stroke-width="1" fill="none" fill-rule="evenodd">
    <g id="kv备份" transform="translate(-763.000000, -753.000000)">
      <g id="magicos-7.0-svg/白色" transform="translate(762.999531, 753.000000)">
        <g id="编组">
          <path
            d="M139.000469,11 C141.762008,11 144.000469,8.76146958 144.000469,5.99984615 C144.000469,3.23822271 141.762008,0.999692298 139.000469,0.999692298 C136.238931,0.999692298 134.000469,3.23822271 134.000469,5.99984615 C134.000469,8.76146958 136.238931,11 139.000469,11"
            id="Fill-1"
            fill="#256FFF"
          ></path>
          <polygon
            id="Fill-3"
            fill="#FFFFFF"
            points="25.1660373 32.4328545 24.9673869 32.4328545 8.27918675 2 0 2 0 50 7.68323547 50 7.68323547 15.5844982 7.8818859 15.5844982 22.8479276 43.4691989 27.218237 43.4691989 42.185843 15.5844982 42.318798 15.5844982 42.318798 50 50.0004693 50 50.0004693 2 41.9871925 2"
          ></polygon>
          <path
            d="M79.6150939,36.9688674 C79.6150939,38.2419794 79.212171,39.4047239 78.4063253,40.4571009 C77.6004795,41.509478 76.5213873,42.344229 75.1705922,42.9582452 C73.8197972,43.5722613 72.3377821,43.8800466 70.7260906,43.8800466 C68.7655081,43.8800466 67.2510739,43.4183687 66.182788,42.4965672 C65.1160458,41.5763202 64.5819029,40.2596831 64.5819029,38.5482102 C64.5819029,36.7932121 65.2472659,35.4221685 66.5749045,34.4350792 C67.9040868,33.44799 69.6145793,32.9536681 71.7063819,32.9536681 C73.3180733,32.9536681 74.8108948,33.1075608 76.1833026,33.4153461 C77.5557103,33.7215769 78.6996408,34.1164126 79.6150939,34.5998532 L79.6150939,36.9688674 Z M80.3020696,15.5466989 C78.2318797,14.51453 75.8899871,14 73.2748479,14 C70.2243667,14 67.4471321,14.6248974 64.9416003,15.8746923 C62.4360685,17.1260417 60.4862923,18.6727406 59.0922719,20.5147891 L63.7976699,24.792694 C64.930794,23.3890064 66.2275572,22.2915497 67.6864158,21.5018783 C69.1468182,20.7122069 70.8789234,20.3173712 72.8827314,20.3173712 C74.2335264,20.3173712 75.4098759,20.5816313 76.4117799,21.1070426 C77.4152277,21.6340084 78.1994607,22.4127985 78.7660227,23.4434129 C79.3325847,24.4755818 79.6150939,25.6709702 79.6150939,27.0311326 L79.6150939,29.4001468 C78.4819698,28.9617859 77.2191694,28.5887128 75.8236052,28.2809275 C74.4295847,27.9746967 72.9043441,27.820804 71.2494272,27.820804 C68.5478371,27.820804 66.1179498,28.2809275 63.9613091,29.202729 C61.8046683,30.1245304 60.1049822,31.4520489 58.8622508,33.1837299 C57.6210631,34.9169653 57.0004693,36.99063 57.0004693,39.4047239 C57.0004693,41.509478 57.5346122,43.3639622 58.6013543,44.9650676 C59.6696403,46.566173 61.1068862,47.806641 62.9146359,48.6833628 C64.7239293,49.5616391 66.7169309,50 68.8951844,50 C71.3791035,50 73.5805135,49.5056781 75.4978706,48.5185889 C77.4152277,47.5314996 78.8524736,46.2708234 79.8111521,44.7350058 L80.0072104,44.7350058 L80.0072104,49.4077464 L87.0004693,49.4077464 L87.0004693,26.8337148 C87.0004693,24.2004404 86.4014881,21.9200311 85.2035259,19.9893778 C84.0055637,18.0587245 82.3707157,16.5773134 80.3020696,15.5466989 L80.3020696,15.5466989 Z"
            id="Fill-5"
            fill="#FFFFFF"
          ></path>
          <path
            d="M117.632488,38.6257961 C116.860684,40.2844247 115.735788,41.5813393 114.259361,42.5196315 C112.781372,43.4579237 111.006535,43.9262969 108.933288,43.9262969 C107.169388,43.9262969 105.603906,43.4579237 104.236845,42.5196315 C102.869783,41.5813393 101.790194,40.2612379 100.996517,38.5608731 C100.20284,36.8589625 99.8060018,34.895814 99.8060018,32.6698819 C99.8060018,30.5753416 100.191904,28.6894825 100.963708,27.0092129 C101.735512,25.3289433 102.836973,23.9980214 104.271216,23.0164472 C105.703897,22.0348729 107.345934,21.5448587 109.198889,21.5448587 C110.962789,21.5448587 112.561079,22.0024114 113.99376,22.9190626 C115.428003,23.8341681 116.58571,25.16509 117.466879,26.9102826 C118.34961,28.6554752 118.790194,30.7067334 118.790194,33.0625116 C118.790194,35.1137699 118.404292,36.9671675 117.632488,38.6257961 L117.632488,38.6257961 Z M118.988614,20.4318927 L118.855813,20.4318927 C117.974644,18.9912199 116.551338,17.7267668 114.589018,16.6354418 C112.626698,15.5456625 110.455023,15 108.073992,15 C105.032084,15 102.29796,15.7636184 99.8716208,17.2908551 C97.4468437,18.8165461 95.52827,20.9435479 94.1174622,23.6718605 C92.705092,26.3986273 92.0004693,29.4639214 92.0004693,32.8661967 C92.0004693,36.399864 92.705092,39.486799 94.1174622,42.1270018 C95.52827,44.7672046 97.4249707,46.7952761 99.8060018,48.2143078 C102.187033,49.6317937 104.788356,50.3413096 107.611534,50.3413096 C110.036312,50.3413096 112.175177,49.8497496 114.028132,48.8681754 C115.879524,47.8866011 117.290332,46.6978915 118.260556,45.3020466 L118.458975,45.3020466 L118.458975,49.0969517 C118.458975,50.7988623 118.140254,52.3369196 117.499688,53.7111235 C116.860684,55.0853274 115.802969,56.209114 114.32498,57.0824832 C112.846991,57.9543066 110.940916,58.3902183 108.603631,58.3902183 C106.486638,58.3902183 104.491509,58.0084091 102.616681,57.2447907 C100.743416,56.4811723 98.9232705,55.3357448 97.1593701,53.8100538 L93.3894041,59.2419465 C95.4173427,61.0737031 97.7327549,62.4927348 100.334078,63.49595 C102.936964,64.4991653 105.714834,65 108.66925,65 C112.329851,65 115.460813,64.3461324 118.062136,63.0368515 C120.665022,61.7291164 122.638278,59.8633525 123.983467,57.4411055 C125.327094,55.0204044 126.000469,52.1514252 126.000469,48.8357138 L126.000469,15.6538676 L118.988614,15.6538676 L118.988614,20.4318927 Z"
            id="Fill-7"
            fill="#FFFFFF"
          ></path>
          <mask id="mask-2" fill="white">
            <use xlink:href="#path-1"></use>
          </mask>
          <g id="Clip-10"></g>
          <polygon
            id="Fill-9"
            fill="#FFFFFF"
            mask="url(#mask-2)"
            points="135.000469 50 142.000469 50 142.000469 16 135.000469 16"
          ></polygon>
          <path
            d="M172.471563,41.9373057 C170.979617,42.9243523 169.239524,43.4186528 167.251285,43.4186528 C165.261513,43.4186528 163.542865,42.9352332 162.09534,41.9699482 C160.646284,41.0046632 159.543408,39.6554404 158.788245,37.9222798 C158.031549,36.1891192 157.653202,34.1823834 157.653202,31.9005181 C157.653202,29.6202073 158.042272,27.6336788 158.820412,25.9455959 C159.598552,24.2559585 160.71215,22.9393782 162.159675,21.9958549 C163.608731,21.053886 165.327379,20.5813472 167.315619,20.5813472 C169.044989,20.5813472 170.60127,20.9761658 171.98446,21.7658031 C173.369182,22.5554404 174.536392,23.542487 175.487622,24.726943 L180.222329,20.1212435 C178.708938,18.3212435 176.795755,16.8523316 174.481248,15.711399 C172.168272,14.5704663 169.715906,14 167.121084,14 C163.705233,14 160.699896,14.7787565 158.106606,16.3362694 C155.511785,17.8937824 153.512822,20.0435233 152.108187,22.7854922 C150.702021,25.5290155 150.000469,28.5880829 150.000469,31.9673575 C150.000469,35.4336788 150.702021,38.5362694 152.108187,41.2797927 C153.512822,44.0217617 155.501062,46.1606218 158.074439,47.6963731 C160.646284,49.2321244 163.619453,50 166.990883,50 C170.190755,50 173.001556,49.2756477 175.421756,47.826943 C177.843487,46.3797927 179.703058,44.5813472 181.000469,42.4316062 L176.265762,38.153886 C175.227221,39.6880829 173.963509,40.9502591 172.471563,41.9373057"
            id="Fill-11"
            fill="#FFFFFF"
            mask="url(#mask-2)"
          ></path>
          <path
            d="M269.900235,27.4084943 C267.166746,25.0929916 263.244441,23.2139673 258.13332,21.7729693 C255.733644,21.1167038 253.867754,20.4836553 252.534076,19.8722759 C251.200397,19.2608965 250.178488,18.5071199 249.466773,17.610946 C248.755058,16.71632 248.400775,15.5910723 248.400775,14.2367509 C248.400775,12.8390911 248.789699,11.6705052 249.567547,10.7309931 C250.345395,9.79148093 251.378326,9.09187717 252.666341,8.63372957 C253.955931,8.17558197 255.377786,7.94496038 256.933482,7.94496038 C259.067052,7.94496038 261.000649,8.33810054 262.734273,9.12438088 C264.466323,9.91220901 265.97793,11.0699604 267.26752,12.597635 L272.466818,7.61837543 C270.645017,5.56445022 268.355562,3.94855126 265.600028,2.76913076 C262.844495,1.58971025 259.97874,1 256.999614,1 C253.933887,1 251.134264,1.5339896 248.600748,2.60506439 C246.067232,3.67459138 244.05648,5.23631748 242.566917,7.29024269 C241.077354,9.3441679 240.334147,11.8113546 240.334147,14.6948985 C240.334147,18.1898217 241.55603,21.0191927 243.999794,23.1814636 C246.445134,25.3437345 250.000559,27.0803616 254.667646,28.3913447 C257.423179,29.1342868 259.555175,29.8338905 261.066782,30.4886082 C262.578389,31.1433259 263.756183,32.0286652 264.600163,33.1430783 C265.444144,34.2559435 265.866134,35.7093239 265.866134,37.5001238 C265.866134,39.5973873 265.022154,41.2241209 263.334192,42.3818722 C261.644657,43.5396236 259.466998,44.1184993 256.799641,44.1184993 C254.355877,44.1184993 252.022334,43.6603517 249.800586,42.7425087 C247.578839,41.8262135 245.623197,40.471892 243.933662,38.6795443 L239.000469,43.6603517 C240.822271,45.9325161 243.377831,47.723316 246.667151,49.0342992 C249.956471,50.3452823 253.244216,51 256.533536,51 C259.777192,51 262.721677,50.4752972 265.366989,49.4274393 C268.010727,48.3780337 270.11123,46.8163076 271.666926,44.742261 C273.222621,42.6666667 274.000469,40.1220901 274.000469,37.1069837 C274.000469,32.9573427 272.633725,29.723997 269.900235,27.4084943"
            id="Fill-12"
            fill="#FFFFFF"
            mask="url(#mask-2)"
          ></path>
          <path
            d="M210.000469,42.9516562 C200.679179,42.9516562 193.12305,35.1376875 193.12305,25.5 C193.12305,15.8623125 200.679179,8.04834375 210.000469,8.04834375 C219.32176,8.04834375 226.87634,15.8623125 226.87634,25.5 C226.87634,35.1376875 219.32176,42.9516562 210.000469,42.9516562 M210.000469,1 C196.746276,1 186.000469,11.969875 186.000469,25.5 C186.000469,39.0316563 196.746276,50 210.000469,50 C223.254663,50 234.000469,39.0316563 234.000469,25.5 C234.000469,11.969875 223.254663,1 210.000469,1"
            id="Fill-13"
            fill="#FFFFFF"
            mask="url(#mask-2)"
          ></path>
        </g>
        <g id="7.0" transform="translate(308.231969, 1.328700)" fill="#FFFFFF" fill-rule="nonzero">
          <polygon
            id="路径"
            points="30.0111 1.0416 30.0111 6.7704 10.6113 48.8901 2.9946 48.8901 22.6548 7.0308 0 7.0308 0 1.0416"
          ></polygon>
          <path
            d="M43.0962,39.9063 C44.3982,39.9063 45.5049,40.362 46.4163,41.2734 C47.3277,42.1848 47.7834,43.28065 47.7834,44.56095 C47.7834,45.84125 47.3277,46.9371 46.4163,47.8485 C45.5049,48.7599 44.3982,49.2156 43.0962,49.2156 C41.881,49.2156 40.80685,48.74905 39.87375,47.81595 C38.94065,46.88285 38.4741,45.8087 38.4741,44.5935 C38.4741,43.2915 38.9298,42.1848 39.8412,41.2734 C40.7526,40.362 41.8376,39.9063 43.0962,39.9063 Z"
            id="路径"
          ></path>
          <path
            d="M86.583,34.6983 C86.4094,39.3421 84.92295,43.04195 82.12365,45.79785 C79.32435,48.55375 75.7547,49.9317 71.4147,49.9317 C67.0747,49.9317 63.50505,48.53205 60.70575,45.73275 C57.90645,42.93345 56.42,39.2336 56.2464,34.6332 C56.0728,28.21 56.0728,21.7651 56.2464,15.2985 C56.42,10.6981 57.90645,6.99825 60.70575,4.19895 C63.50505,1.39965 67.0747,0 71.4147,0 C75.7547,0 79.32435,1.39965 82.12365,4.19895 C84.92295,6.99825 86.4094,10.7198 86.583,15.3636 C86.7566,21.8302 86.7566,28.2751 86.583,34.6983 Z M63.147,33.5265 C63.4074,40.2969 66.1633,43.6821 71.4147,43.6821 C76.6661,43.6821 79.422,40.2969 79.6824,33.5265 C79.856,27.8411 79.856,22.134 79.6824,16.4052 C79.422,9.6348 76.6661,6.2496 71.4147,6.2496 C66.1633,6.2496 63.4074,9.6348 63.147,16.4052 C62.9734,22.134 62.9734,27.8411 63.147,33.5265 Z"
            id="形状"
          ></path>
        </g>
      </g>
    </g>
  </g>
</svg>
