<?xml version="1.0" encoding="utf-8"?>
<!-- Generator: Adobe Illustrator 16.0.0, SVG Export Plug-In . SVG Version: 6.00 Build 0)  -->
<!DOCTYPE svg PUBLIC "-//W3C//DTD SVG 1.1//EN" "http://www.w3.org/Graphics/SVG/1.1/DTD/svg11.dtd">
<svg
	version="1.1"
	id="图层_1"
	xmlns="http://www.w3.org/2000/svg"
	xmlns:xlink="http://www.w3.org/1999/xlink"
	x="0px"
  y="0px"
	width="110px"
	height="25px"
	viewBox="0 0 110 25"
	enable-background="new 0 0 130 25"
	xml:space="preserve"
>
  <title>logo</title>
  <g id="控件">
    <g id="Nav_x2F_web" transform="translate(-80.000000, -20.000000)">
      <g id="Nav">
        <path
					id="logo"
					d="M93.237,22.276v8.295h-8.166v-8.295H81.4v20.465h3.671v-8.524h8.166v8.524h3.671V22.276H93.237z
					M178.19,25.922h4.087c1.677,0,3.035,1.349,3.035,3.013c0,1.665-1.358,3.014-3.035,3.014h-4.087V25.922z M174.521,22.276v20.465
					h3.67v-9.107l7.641,9.107h4.77l-6.263-7.46c3.144-1,5.088-4.12,4.585-7.359c-0.503-3.239-3.304-5.634-6.604-5.646h-7.805H174.521
					z M139.803,22.215v12.77l-8.911-12.77h-2.932v20.463h3.672V29.85l8.955,12.829h2.882V22.215H139.803z M105.533,32.495
					c0.002-3.785,3.093-6.852,6.904-6.851c3.812,0.002,6.9,3.071,6.899,6.856s-3.09,6.853-6.902,6.853
					c-1.831,0-3.586-0.722-4.88-2.007s-2.021-3.029-2.021-4.847V32.495z M101.862,32.499c0,4.248,2.575,8.076,6.526,9.702
					c3.951,1.625,8.498,0.728,11.522-2.275c3.024-3.003,3.929-7.519,2.292-11.443c-1.636-3.924-5.492-6.482-9.768-6.482
					c-5.836,0.001-10.567,4.698-10.57,10.495L101.862,32.499z M152.096,32.495c0.002-3.785,3.093-6.853,6.905-6.851
					c3.812,0.002,6.899,3.072,6.897,6.857c-0.001,3.785-3.092,6.853-6.904,6.851c-1.83,0-3.585-0.722-4.88-2.007
					s-2.021-3.029-2.021-4.847L152.096,32.495z M148.422,32.499c-0.001,4.248,2.575,8.076,6.525,9.702
					c3.951,1.625,8.499,0.728,11.522-2.275s3.93-7.519,2.292-11.443c-1.636-3.924-5.491-6.482-9.768-6.482
					c-5.836,0.001-10.568,4.698-10.571,10.495L148.422,32.499z"
				/>
      </g>
    </g>
  </g>
</svg>
